%
M48
M72
T01C0.0240
T02C0.0315
T03C0.0400
T04C0.0472
T05C0.0500
T06C0.0551
T07C0.0709
%
T01
X18304Y7500
X17202Y8287
X16729Y8760
X18777Y8445
X17517Y11752
X15785Y11752
X21296Y13484
X17517Y16161
X15785Y16161
X22241Y19311
X25863Y18996
X23344Y20886
X15312Y19783
X28698Y13484
X34052Y12382
X36572Y10964
X35155Y10492
X33737Y10649
X32635Y10020
X33737Y9862
X35155Y9232
X35312Y9862
X33580Y8917
X31848Y9075
X30430Y9075
X30430Y10334
X33265Y7342
X43344Y11909
X46336Y12224
X46651Y11122
X49485Y11752
X49958Y15531
X47123Y15531
X38934Y15531
X37202Y16319
X46966Y19783
X49485Y20571
X49328Y22775
X50273Y23563
X46966Y24035
X46966Y24665
X34997Y21516
X50273Y6555
X46336Y3563
X49485Y3090
T02
X17422Y24012
X16635Y24012
X15848Y24012
T03
X34450Y23577
X35450Y23577
X38885Y23137
X39885Y23137
X40885Y23137
X41885Y23137
X42885Y23137
X42885Y22137
X41885Y22137
X40885Y22137
X39885Y22137
X38885Y22137
T04
X43501Y16811
X43501Y10512
X43501Y4212
X21769Y4212
X21769Y10512
X21769Y16811
T05
X21515Y22912
X20515Y22912
X22515Y22912
X42755Y3112
X43755Y3112
X44755Y3112
T06
X18249Y24012
X15021Y24012
T07
X25010Y22818
X26860Y21637
X25010Y20456
M30
