G75*
G70*
%OFA0B0*%
%FSLAX24Y24*%
%IPPOS*%
%LPD*%
%AMOC8*
5,1,8,0,0,1.08239X$1,22.5*
%
%ADD10C,0.1063*%
%ADD11R,0.0787X0.0630*%
%ADD12R,0.0630X0.0472*%
%ADD13C,0.0750*%
%ADD14R,0.0197X0.0709*%
%ADD15R,0.0709X0.0197*%
%ADD16R,0.0512X0.0591*%
%ADD17C,0.0709*%
%ADD18R,0.0500X0.1000*%
%ADD19R,0.1575X0.1181*%
%ADD20C,0.0475*%
%ADD21C,0.0827*%
%ADD22R,0.0600X0.0600*%
%ADD23OC8,0.0600*%
%ADD24C,0.0600*%
%ADD25R,0.0591X0.0512*%
%ADD26C,0.0100*%
%ADD27C,0.0400*%
%ADD28C,0.0200*%
D10*
X025010Y020456D03*
X026860Y021637D03*
X025010Y022818D03*
D11*
X018289Y020522D03*
X018289Y018751D03*
X014981Y018751D03*
X014981Y020522D03*
X014981Y016147D03*
X018289Y016147D03*
X018289Y014376D03*
X014981Y014376D03*
X014981Y011772D03*
X018289Y011772D03*
X018289Y010001D03*
X014981Y010001D03*
X014981Y003022D03*
X018289Y003022D03*
X018289Y001251D03*
X014981Y001251D03*
X046981Y001251D03*
X050289Y001251D03*
X050289Y003022D03*
X046981Y003022D03*
X046981Y010001D03*
X050289Y010001D03*
X050289Y011772D03*
X046981Y011772D03*
X046981Y014376D03*
X050289Y014376D03*
X050289Y016147D03*
X046981Y016147D03*
X046981Y018751D03*
X046981Y020522D03*
X050289Y020522D03*
X050289Y018751D03*
D12*
X049619Y023382D03*
X049619Y024012D03*
X049619Y024642D03*
X047651Y024642D03*
X047651Y024012D03*
X047651Y023382D03*
X047651Y007142D03*
X047651Y006512D03*
X047651Y005882D03*
X049619Y005882D03*
X049619Y006512D03*
X049619Y007142D03*
X017619Y007142D03*
X017619Y006512D03*
X017619Y005882D03*
X015651Y005882D03*
X015651Y006512D03*
X015651Y007142D03*
D13*
X042755Y003112D03*
X043755Y003112D03*
X044755Y003112D03*
X022515Y022912D03*
X021515Y022912D03*
X020515Y022912D03*
D14*
X031690Y011379D03*
X032005Y011379D03*
X032320Y011379D03*
X032635Y011379D03*
X032950Y011379D03*
X033265Y011379D03*
X033580Y011379D03*
X033895Y011379D03*
X033895Y008150D03*
X033580Y008150D03*
X033265Y008150D03*
X032950Y008150D03*
X032635Y008150D03*
X032320Y008150D03*
X032005Y008150D03*
X031690Y008150D03*
D15*
X031178Y008662D03*
X031178Y008977D03*
X031178Y009292D03*
X031178Y009607D03*
X031178Y009922D03*
X031178Y010237D03*
X031178Y010552D03*
X031178Y010867D03*
X034407Y010867D03*
X034407Y010552D03*
X034407Y010237D03*
X034407Y009922D03*
X034407Y009607D03*
X034407Y009292D03*
X034407Y008977D03*
X034407Y008662D03*
D16*
G36*
X031013Y008028D02*
X031375Y007666D01*
X030959Y007250D01*
X030597Y007612D01*
X031013Y008028D01*
G37*
G36*
X030484Y008557D02*
X030846Y008195D01*
X030430Y007779D01*
X030068Y008141D01*
X030484Y008557D01*
G37*
G36*
X035017Y011001D02*
X034655Y011363D01*
X035071Y011779D01*
X035433Y011417D01*
X035017Y011001D01*
G37*
G36*
X034488Y011530D02*
X034126Y011892D01*
X034542Y012308D01*
X034904Y011946D01*
X034488Y011530D01*
G37*
X028163Y013960D03*
X027414Y013960D03*
X026019Y013931D03*
X025271Y013931D03*
X035531Y018447D03*
X036279Y018447D03*
X037998Y018447D03*
X038746Y018447D03*
X038740Y016758D03*
X037992Y016758D03*
D17*
X043501Y016811D03*
X043501Y010512D03*
X043501Y004212D03*
X021769Y004212D03*
X021769Y010512D03*
X021769Y016811D03*
D18*
X025692Y015446D03*
X026602Y015446D03*
X027512Y015446D03*
D19*
X026602Y018084D03*
D20*
X017422Y024012D03*
X016635Y024012D03*
X015848Y024012D03*
D21*
X015021Y024012D03*
X018249Y024012D03*
D22*
X042885Y022137D03*
D23*
X041885Y022137D03*
X040885Y022137D03*
X039885Y022137D03*
X038885Y022137D03*
X038885Y023137D03*
X039885Y023137D03*
X040885Y023137D03*
X041885Y023137D03*
X042885Y023137D03*
D24*
X035450Y023277D02*
X035450Y023877D01*
X034450Y023877D02*
X034450Y023277D01*
D25*
X022242Y021508D03*
X022242Y020760D03*
D26*
X022241Y020728D01*
X022241Y019311D01*
X018289Y020522D02*
X018147Y020571D01*
X014997Y020571D01*
X014981Y020522D01*
X014997Y020413D01*
X014997Y020098D01*
X015312Y019783D01*
X020509Y021516D02*
X020509Y022775D01*
X020515Y022912D01*
X020509Y021516D02*
X022241Y021516D01*
X022242Y021508D01*
X031690Y022146D02*
X031690Y011379D01*
X032005Y011379D02*
X032005Y018523D01*
X034997Y021516D01*
X034210Y024665D02*
X031690Y022146D01*
X034210Y024665D02*
X040824Y024665D01*
X040824Y023248D01*
X040885Y023137D01*
X042885Y022137D02*
X042871Y021988D01*
X042871Y019468D01*
X038934Y015531D01*
X037989Y016634D02*
X037992Y016758D01*
X037989Y016791D01*
X037989Y018366D01*
X037998Y018447D01*
X037989Y018523D01*
X036414Y018523D01*
X036279Y018447D01*
X037989Y016634D02*
X037989Y012382D01*
X036572Y010964D01*
X035155Y010492D02*
X034525Y010492D01*
X034407Y010552D01*
X034407Y009922D02*
X034367Y009862D01*
X033737Y009862D01*
X034407Y009607D02*
X034525Y009547D01*
X034997Y009547D01*
X035312Y009862D01*
X035155Y009232D02*
X034525Y009232D01*
X034407Y009292D01*
X034407Y008977D02*
X034525Y008917D01*
X034997Y008917D01*
X035155Y008760D01*
X042556Y008760D01*
X042556Y014271D01*
X046021Y017736D01*
X046021Y019153D01*
X046808Y019941D01*
X046966Y019783D01*
X046808Y019941D02*
X046966Y020098D01*
X046966Y020413D01*
X046981Y020522D01*
X049485Y020571D02*
X050273Y020571D01*
X050289Y020522D01*
X049328Y022775D02*
X049485Y022933D01*
X049485Y023248D01*
X049619Y023382D01*
X049800Y024035D02*
X050273Y023563D01*
X051093Y023878D02*
X049800Y025295D01*
X048540Y025295D01*
X048540Y024350D01*
X048226Y024035D01*
X048226Y023563D01*
X048068Y023405D01*
X047753Y023405D01*
X047651Y023382D01*
X047651Y024012D02*
X047596Y024035D01*
X046966Y024035D01*
X049619Y024012D02*
X049643Y024035D01*
X049800Y024035D01*
X051093Y023878D02*
X051093Y005925D01*
X049643Y005925D01*
X049619Y005882D01*
X049619Y006512D02*
X049643Y006555D01*
X050273Y006555D01*
X046966Y002933D02*
X046336Y003563D01*
X046981Y003022D02*
X046966Y002933D01*
X049485Y003090D02*
X050273Y003090D01*
X050289Y003022D01*
X034525Y007657D02*
X029958Y003090D01*
X019249Y003090D01*
X019249Y000728D01*
X014525Y000728D01*
X014052Y001201D01*
X014052Y002146D01*
X014840Y002933D01*
X014981Y003022D01*
X018289Y003022D02*
X018304Y003090D01*
X019249Y003090D01*
X019249Y003405D02*
X019249Y010334D01*
X018304Y011279D01*
X018304Y011752D01*
X018289Y011772D01*
X018147Y011752D01*
X017517Y011752D01*
X015785Y011752D02*
X014997Y011752D01*
X014981Y011772D01*
X018619Y016161D02*
X021296Y013484D01*
X018619Y016161D02*
X018304Y016161D01*
X018289Y016147D01*
X018147Y016161D01*
X017517Y016161D01*
X015785Y016161D02*
X014997Y016161D01*
X014981Y016147D01*
X030430Y010334D02*
X030903Y009862D01*
X031060Y009862D01*
X031178Y009922D01*
X031178Y009292D02*
X031060Y009232D01*
X030588Y009232D01*
X030430Y009075D01*
X031178Y008977D02*
X031218Y008917D01*
X031690Y008917D01*
X031848Y009075D01*
X032635Y008150D02*
X032635Y010020D01*
X033580Y008917D02*
X033580Y008150D01*
X033895Y008150D02*
X033895Y007500D01*
X029800Y003405D01*
X019249Y003405D01*
X018777Y005925D02*
X017674Y005925D01*
X017619Y005882D01*
X016415Y005925D02*
X016415Y007500D01*
X017202Y008287D01*
X016729Y008130D02*
X016729Y008760D01*
X016729Y008130D02*
X016100Y007500D01*
X016100Y006555D01*
X015785Y006555D01*
X015651Y006512D01*
X015785Y005925D02*
X015651Y005882D01*
X015785Y005925D02*
X016415Y005925D01*
X017619Y006512D02*
X017674Y006555D01*
X018462Y006555D01*
X018462Y007342D01*
X018304Y007500D01*
X018777Y008445D02*
X018777Y005925D01*
X033265Y007342D02*
X033265Y008150D01*
X034407Y008662D02*
X034525Y008602D01*
X034525Y007657D01*
X046651Y011122D02*
X046966Y011437D01*
X046966Y011752D01*
X046981Y011772D01*
X049485Y011752D02*
X050273Y011752D01*
X050289Y011772D01*
X049958Y015531D02*
X050273Y015846D01*
X050273Y016004D01*
X050289Y016147D01*
X047123Y016004D02*
X047123Y015531D01*
X047123Y016004D02*
X046981Y016147D01*
D27*
X047123Y015531D03*
X049958Y015531D03*
X046336Y012224D03*
X046651Y011122D03*
X049485Y011752D03*
X043344Y011909D03*
X036572Y010964D03*
X035155Y010492D03*
X033737Y010649D03*
X032635Y010020D03*
X033737Y009862D03*
X035155Y009232D03*
X035312Y009862D03*
X033580Y008917D03*
X031848Y009075D03*
X030430Y009075D03*
X030430Y010334D03*
X034052Y012382D03*
X028698Y013484D03*
X021296Y013484D03*
X017517Y011752D03*
X015785Y011752D03*
X016729Y008760D03*
X017202Y008287D03*
X018777Y008445D03*
X018304Y007500D03*
X033265Y007342D03*
X046336Y003563D03*
X049485Y003090D03*
X050273Y006555D03*
X038934Y015531D03*
X037202Y016319D03*
X046966Y019783D03*
X049485Y020571D03*
X049328Y022775D03*
X050273Y023563D03*
X046966Y024035D03*
X046966Y024665D03*
X034997Y021516D03*
X025863Y018996D03*
X022241Y019311D03*
X023344Y020886D03*
X015312Y019783D03*
X015785Y016161D03*
X017517Y016161D03*
D28*
X000849Y000763D02*
X000762Y000850D01*
X000700Y000957D01*
X000668Y001075D01*
X000664Y001137D01*
X000664Y001220D01*
X000664Y001242D01*
X000664Y024887D01*
X000668Y024948D01*
X000700Y025067D01*
X000762Y025173D01*
X000849Y025260D01*
X000955Y025321D01*
X001074Y025353D01*
X001135Y025357D01*
X001196Y025357D01*
X001240Y025357D01*
X048310Y025357D01*
X048310Y024445D01*
X048146Y024281D01*
X048146Y024322D01*
X048141Y024327D01*
X048146Y024331D01*
X048146Y024952D01*
X048040Y025058D01*
X047261Y025058D01*
X047186Y024982D01*
X047181Y024987D01*
X047041Y025045D01*
X046890Y025045D01*
X046750Y024987D01*
X046644Y024880D01*
X046586Y024741D01*
X046586Y024590D01*
X046644Y024450D01*
X046743Y024350D01*
X046644Y024251D01*
X046586Y024111D01*
X046586Y023960D01*
X046644Y023820D01*
X046750Y023713D01*
X046890Y023655D01*
X047041Y023655D01*
X047156Y023703D01*
X047156Y023701D01*
X047160Y023697D01*
X047156Y023692D01*
X047156Y023071D01*
X047261Y022966D01*
X048040Y022966D01*
X048146Y023071D01*
X048146Y023175D01*
X048163Y023175D01*
X048298Y023310D01*
X048455Y023468D01*
X048455Y023658D01*
X048455Y023940D01*
X048770Y024255D01*
X048770Y024445D01*
X048770Y025065D01*
X049231Y025065D01*
X049227Y025064D01*
X049181Y025038D01*
X049144Y025001D01*
X049118Y024955D01*
X049104Y024904D01*
X049104Y024660D01*
X049601Y024660D01*
X049601Y024623D01*
X049104Y024623D01*
X049104Y024379D01*
X049118Y024328D01*
X049124Y024317D01*
X049124Y023701D01*
X049128Y023697D01*
X049124Y023692D01*
X049124Y023102D01*
X049113Y023098D01*
X049006Y022991D01*
X048948Y022851D01*
X048948Y022700D01*
X049006Y022560D01*
X049113Y022453D01*
X049252Y022395D01*
X049403Y022395D01*
X049543Y022453D01*
X049650Y022560D01*
X049708Y022700D01*
X049708Y022830D01*
X049715Y022838D01*
X049715Y022966D01*
X050009Y022966D01*
X050114Y023071D01*
X050114Y023217D01*
X050197Y023183D01*
X050348Y023183D01*
X050488Y023241D01*
X050595Y023348D01*
X050653Y023487D01*
X050653Y023638D01*
X050595Y023778D01*
X050488Y023885D01*
X050348Y023943D01*
X050218Y023943D01*
X050114Y024047D01*
X050114Y024317D01*
X050121Y024328D01*
X050134Y024379D01*
X050134Y024588D01*
X050863Y023789D01*
X050863Y019153D01*
X050842Y019189D01*
X050805Y019226D01*
X050759Y019252D01*
X050709Y019266D01*
X050346Y019266D01*
X050346Y018809D01*
X050231Y018809D01*
X050231Y019266D01*
X049868Y019266D01*
X049818Y019252D01*
X049772Y019226D01*
X049735Y019189D01*
X049708Y019143D01*
X049695Y019092D01*
X049695Y018808D01*
X050231Y018808D01*
X050231Y018693D01*
X050346Y018693D01*
X050346Y018236D01*
X050709Y018236D01*
X050759Y018249D01*
X050805Y018276D01*
X050842Y018313D01*
X050863Y018348D01*
X050863Y014778D01*
X050842Y014814D01*
X050805Y014851D01*
X050759Y014877D01*
X050709Y014891D01*
X050346Y014891D01*
X050346Y014434D01*
X050231Y014434D01*
X050231Y014891D01*
X049868Y014891D01*
X049818Y014877D01*
X049772Y014851D01*
X049735Y014814D01*
X049708Y014768D01*
X049695Y014717D01*
X049695Y014433D01*
X050231Y014433D01*
X050231Y014318D01*
X050346Y014318D01*
X050346Y013861D01*
X050709Y013861D01*
X050759Y013874D01*
X050805Y013901D01*
X050842Y013938D01*
X050863Y013973D01*
X050863Y010403D01*
X050842Y010439D01*
X050805Y010476D01*
X050759Y010502D01*
X050709Y010516D01*
X050346Y010516D01*
X050346Y010059D01*
X050231Y010059D01*
X050231Y010516D01*
X049868Y010516D01*
X049818Y010502D01*
X049772Y010476D01*
X049735Y010439D01*
X049708Y010393D01*
X049695Y010342D01*
X049695Y010058D01*
X050231Y010058D01*
X050231Y009943D01*
X050346Y009943D01*
X050346Y009486D01*
X050709Y009486D01*
X050759Y009499D01*
X050805Y009526D01*
X050842Y009563D01*
X050863Y009598D01*
X050863Y006155D01*
X050114Y006155D01*
X050114Y006192D01*
X050110Y006197D01*
X050114Y006201D01*
X050114Y006209D01*
X050197Y006175D01*
X050348Y006175D01*
X050488Y006233D01*
X050595Y006340D01*
X050653Y006479D01*
X050653Y006631D01*
X050595Y006770D01*
X050488Y006877D01*
X050348Y006935D01*
X050197Y006935D01*
X050134Y006909D01*
X050134Y007123D01*
X049638Y007123D01*
X049638Y007160D01*
X050134Y007160D01*
X050134Y007404D01*
X050121Y007455D01*
X050094Y007501D01*
X050057Y007538D01*
X050011Y007564D01*
X049961Y007578D01*
X049637Y007578D01*
X049637Y007160D01*
X049601Y007160D01*
X049601Y007578D01*
X049278Y007578D01*
X049227Y007564D01*
X049181Y007538D01*
X049144Y007501D01*
X049118Y007455D01*
X049104Y007404D01*
X049104Y007160D01*
X049601Y007160D01*
X049601Y007123D01*
X049104Y007123D01*
X049104Y006879D01*
X049118Y006828D01*
X049124Y006817D01*
X049124Y006201D01*
X049128Y006197D01*
X049124Y006192D01*
X049124Y005571D01*
X049230Y005466D01*
X050009Y005466D01*
X050114Y005571D01*
X050114Y005695D01*
X050997Y005695D01*
X051188Y005695D01*
X051323Y005830D01*
X051323Y023873D01*
X051327Y023962D01*
X051323Y023967D01*
X051323Y023973D01*
X051259Y024036D01*
X050055Y025357D01*
X064135Y025357D01*
X064196Y025353D01*
X064315Y025321D01*
X064421Y025260D01*
X064508Y025173D01*
X064570Y025067D01*
X064601Y024948D01*
X064605Y024887D01*
X064605Y001137D01*
X064601Y001075D01*
X064570Y000957D01*
X064508Y000850D01*
X064421Y000763D01*
X064315Y000702D01*
X019479Y000702D01*
X019479Y000666D02*
X019479Y002860D01*
X030053Y002860D01*
X030188Y002995D01*
X034755Y007562D01*
X034755Y007753D01*
X034755Y008384D01*
X034835Y008384D01*
X034941Y008489D01*
X034941Y008648D01*
X035059Y008530D01*
X042461Y008530D01*
X042651Y008530D01*
X042786Y008664D01*
X042786Y014176D01*
X046116Y017506D01*
X046251Y017641D01*
X046251Y019058D01*
X046702Y019509D01*
X046750Y019461D01*
X046890Y019403D01*
X047041Y019403D01*
X047181Y019461D01*
X047288Y019568D01*
X047346Y019708D01*
X047346Y019859D01*
X047288Y019999D01*
X047259Y020028D01*
X047450Y020028D01*
X047555Y020133D01*
X047555Y020912D01*
X047450Y021017D01*
X046513Y021017D01*
X046408Y020912D01*
X046408Y020133D01*
X046513Y020028D01*
X046570Y020028D01*
X045791Y019249D01*
X045791Y019058D01*
X045791Y017831D01*
X042326Y014367D01*
X042326Y014176D01*
X042326Y008990D01*
X035450Y008990D01*
X035477Y009017D01*
X035535Y009157D01*
X035535Y009308D01*
X035477Y009447D01*
X035426Y009498D01*
X035527Y009540D01*
X035634Y009647D01*
X035692Y009786D01*
X035692Y009938D01*
X035634Y010077D01*
X035527Y010184D01*
X035426Y010226D01*
X035477Y010277D01*
X035535Y010416D01*
X035535Y010568D01*
X035477Y010707D01*
X035370Y010814D01*
X035230Y010872D01*
X035171Y010872D01*
X035347Y011048D01*
X035044Y011350D01*
X035084Y011390D01*
X035044Y011430D01*
X035374Y011760D01*
X035195Y011940D01*
X035149Y011966D01*
X035098Y011980D01*
X035085Y011980D01*
X035085Y012021D01*
X034618Y012489D01*
X034468Y012489D01*
X034432Y012452D01*
X034432Y012457D01*
X034374Y012597D01*
X034268Y012704D01*
X034128Y012762D01*
X033977Y012762D01*
X033837Y012704D01*
X033730Y012597D01*
X033672Y012457D01*
X033672Y012306D01*
X033730Y012166D01*
X033837Y012060D01*
X033977Y012002D01*
X033982Y012002D01*
X033945Y011966D01*
X033945Y011913D01*
X033753Y011913D01*
X033438Y011913D01*
X033123Y011913D01*
X032808Y011913D01*
X032493Y011913D01*
X032235Y011913D01*
X032235Y018428D01*
X034942Y021136D01*
X035073Y021136D01*
X035190Y021184D01*
X035190Y018911D01*
X035095Y018816D01*
X035095Y018077D01*
X035199Y017973D01*
X035232Y017892D01*
X035311Y017814D01*
X036822Y016303D01*
X036822Y016243D01*
X036880Y016103D01*
X036987Y015997D01*
X037126Y015939D01*
X037277Y015939D01*
X037417Y015997D01*
X037524Y016103D01*
X037582Y016243D01*
X037582Y016362D01*
X037662Y016282D01*
X037759Y016282D01*
X037759Y012477D01*
X036627Y011344D01*
X036496Y011344D01*
X036357Y011287D01*
X036250Y011180D01*
X036192Y011040D01*
X036192Y010889D01*
X036250Y010749D01*
X036357Y010642D01*
X036496Y010584D01*
X036648Y010584D01*
X036787Y010642D01*
X036894Y010749D01*
X036952Y010889D01*
X036952Y011019D01*
X038085Y012152D01*
X038219Y012286D01*
X038219Y016282D01*
X038323Y016282D01*
X038352Y016312D01*
X038362Y016302D01*
X038407Y016276D01*
X038458Y016262D01*
X038712Y016262D01*
X038712Y016729D01*
X038768Y016729D01*
X038768Y016262D01*
X039023Y016262D01*
X039073Y016276D01*
X039119Y016302D01*
X039156Y016340D01*
X039183Y016385D01*
X039196Y016436D01*
X039196Y016730D01*
X038768Y016730D01*
X038768Y016786D01*
X038712Y016786D01*
X038712Y017253D01*
X038458Y017253D01*
X038407Y017239D01*
X038362Y017213D01*
X038352Y017204D01*
X038323Y017233D01*
X038219Y017233D01*
X038219Y017971D01*
X038329Y017971D01*
X038358Y018001D01*
X038367Y017991D01*
X038413Y017965D01*
X038464Y017951D01*
X038718Y017951D01*
X038718Y018418D01*
X038774Y018418D01*
X038774Y017951D01*
X039028Y017951D01*
X039079Y017965D01*
X039125Y017991D01*
X039162Y018029D01*
X039188Y018074D01*
X039202Y018125D01*
X039202Y018419D01*
X038774Y018419D01*
X038774Y018475D01*
X038718Y018475D01*
X038718Y018942D01*
X038464Y018942D01*
X038413Y018928D01*
X038367Y018902D01*
X038358Y018892D01*
X038329Y018922D01*
X037668Y018922D01*
X037562Y018816D01*
X037562Y018753D01*
X036715Y018753D01*
X036715Y018816D01*
X036609Y018922D01*
X035948Y018922D01*
X035905Y018878D01*
X035861Y018922D01*
X035750Y018922D01*
X035750Y022090D01*
X035750Y022201D01*
X035707Y022304D01*
X034901Y023110D01*
X034930Y023181D01*
X034930Y023972D01*
X034857Y024149D01*
X034722Y024284D01*
X034545Y024357D01*
X034354Y024357D01*
X034178Y024284D01*
X034043Y024149D01*
X033970Y023972D01*
X033970Y023181D01*
X034043Y023005D01*
X034178Y022870D01*
X034354Y022797D01*
X034423Y022797D01*
X035190Y022030D01*
X035190Y021847D01*
X035073Y021896D01*
X034922Y021896D01*
X034782Y021838D01*
X034675Y021731D01*
X034617Y021591D01*
X034617Y021461D01*
X031920Y018764D01*
X031920Y022050D01*
X034305Y024435D01*
X040594Y024435D01*
X040594Y023524D01*
X040405Y023335D01*
X040405Y022938D01*
X040686Y022657D01*
X041084Y022657D01*
X041365Y022938D01*
X041365Y023335D01*
X041084Y023617D01*
X041054Y023617D01*
X041054Y024760D01*
X040919Y024895D01*
X040729Y024895D01*
X034114Y024895D01*
X033980Y024760D01*
X031595Y022375D01*
X031460Y022241D01*
X031460Y011856D01*
X031412Y011808D01*
X031412Y011145D01*
X030749Y011145D01*
X030644Y011040D01*
X030644Y010725D01*
X030644Y010657D01*
X030506Y010714D01*
X030355Y010714D01*
X030215Y010657D01*
X030108Y010550D01*
X030050Y010410D01*
X030050Y010259D01*
X030108Y010119D01*
X030215Y010012D01*
X030355Y009954D01*
X030485Y009954D01*
X030644Y009796D01*
X030644Y009780D01*
X030644Y009465D01*
X030644Y009462D01*
X030492Y009462D01*
X030485Y009455D01*
X030355Y009455D01*
X030215Y009397D01*
X030108Y009290D01*
X030050Y009150D01*
X030050Y008999D01*
X030108Y008859D01*
X030215Y008753D01*
X030344Y008699D01*
X030154Y008510D01*
X030457Y008208D01*
X030417Y008168D01*
X030115Y008470D01*
X029907Y008263D01*
X029881Y008217D01*
X029867Y008166D01*
X029867Y008114D01*
X029881Y008063D01*
X029907Y008017D01*
X030087Y007837D01*
X030417Y008168D01*
X030457Y008128D01*
X030127Y007798D01*
X030145Y007780D01*
X029135Y007780D01*
X029135Y013271D01*
X029135Y013382D01*
X029093Y013485D01*
X029078Y013500D01*
X029078Y013560D01*
X029020Y013699D01*
X028913Y013806D01*
X028774Y013864D01*
X028714Y013864D01*
X028598Y013980D01*
X028598Y014330D01*
X028493Y014436D01*
X028142Y014436D01*
X027876Y014702D01*
X027876Y014804D01*
X027942Y014871D01*
X027942Y016020D01*
X027837Y016126D01*
X027188Y016126D01*
X027082Y016020D01*
X027082Y014871D01*
X027188Y014766D01*
X027316Y014766D01*
X027316Y014642D01*
X027316Y014531D01*
X027347Y014456D01*
X027132Y014456D01*
X027081Y014442D01*
X027036Y014416D01*
X026999Y014379D01*
X026972Y014333D01*
X026959Y014282D01*
X026959Y013988D01*
X027386Y013988D01*
X027386Y013932D01*
X027442Y013932D01*
X027442Y013465D01*
X027697Y013465D01*
X027748Y013479D01*
X027793Y013505D01*
X027803Y013515D01*
X027832Y013485D01*
X028301Y013485D01*
X028318Y013468D01*
X028318Y013408D01*
X028376Y013269D01*
X028483Y013162D01*
X028575Y013124D01*
X028575Y007444D01*
X028618Y007341D01*
X028697Y007263D01*
X028800Y007220D01*
X028911Y007220D01*
X030733Y007220D01*
X030884Y007069D01*
X030963Y007069D01*
X030980Y007026D01*
X031059Y006948D01*
X031162Y006905D01*
X031273Y006905D01*
X032533Y006905D01*
X032636Y006948D01*
X032715Y007026D01*
X032906Y007217D01*
X032943Y007127D01*
X033050Y007020D01*
X033078Y007008D01*
X029705Y003635D01*
X019479Y003635D01*
X019479Y010239D01*
X019479Y010430D01*
X018631Y011278D01*
X018757Y011278D01*
X018862Y011383D01*
X018862Y012162D01*
X018757Y012267D01*
X017820Y012267D01*
X017715Y012162D01*
X017715Y012081D01*
X017592Y012132D01*
X017441Y012132D01*
X017302Y012074D01*
X017195Y011967D01*
X017137Y011827D01*
X017137Y011676D01*
X017195Y011537D01*
X017302Y011430D01*
X017441Y011372D01*
X017592Y011372D01*
X017715Y011422D01*
X017715Y011383D01*
X017820Y011278D01*
X018074Y011278D01*
X018074Y011184D01*
X018209Y011049D01*
X018755Y010503D01*
X018709Y010516D01*
X018346Y010516D01*
X018346Y010059D01*
X018231Y010059D01*
X018231Y010516D01*
X017868Y010516D01*
X017818Y010502D01*
X017772Y010476D01*
X017735Y010439D01*
X017708Y010393D01*
X017695Y010342D01*
X017695Y010058D01*
X018231Y010058D01*
X018231Y009943D01*
X018346Y009943D01*
X018346Y009486D01*
X018709Y009486D01*
X018759Y009499D01*
X018805Y009526D01*
X018842Y009563D01*
X018869Y009609D01*
X018882Y009659D01*
X018882Y009943D01*
X018346Y009943D01*
X018346Y010058D01*
X018882Y010058D01*
X018882Y010342D01*
X018870Y010389D01*
X019019Y010239D01*
X019019Y008740D01*
X018992Y008767D01*
X018852Y008825D01*
X018701Y008825D01*
X018561Y008767D01*
X018455Y008660D01*
X018397Y008520D01*
X018397Y008369D01*
X018455Y008229D01*
X018547Y008137D01*
X018547Y007795D01*
X018520Y007822D01*
X018380Y007880D01*
X018229Y007880D01*
X018089Y007822D01*
X017982Y007715D01*
X017925Y007578D01*
X017637Y007578D01*
X017637Y007160D01*
X017601Y007160D01*
X017601Y007578D01*
X017278Y007578D01*
X017227Y007564D01*
X017181Y007538D01*
X017144Y007501D01*
X017118Y007455D01*
X017104Y007404D01*
X017104Y007160D01*
X017601Y007160D01*
X017601Y007123D01*
X017104Y007123D01*
X017104Y006879D01*
X017118Y006828D01*
X017124Y006817D01*
X017124Y006201D01*
X017128Y006197D01*
X017124Y006192D01*
X017124Y005571D01*
X017230Y005466D01*
X018009Y005466D01*
X018114Y005571D01*
X018114Y005695D01*
X018681Y005695D01*
X018872Y005695D01*
X019007Y005830D01*
X019007Y008137D01*
X019019Y008150D01*
X019019Y003320D01*
X018862Y003320D01*
X018862Y003412D01*
X018757Y003517D01*
X017820Y003517D01*
X017715Y003412D01*
X017715Y002633D01*
X017820Y002528D01*
X018757Y002528D01*
X018862Y002633D01*
X018862Y002860D01*
X019019Y002860D01*
X019019Y000958D01*
X018882Y000958D01*
X018882Y001193D01*
X018346Y001193D01*
X018346Y001308D01*
X018882Y001308D01*
X018882Y001592D01*
X018869Y001643D01*
X018842Y001689D01*
X018805Y001726D01*
X018759Y001752D01*
X018709Y001766D01*
X018346Y001766D01*
X018346Y001309D01*
X018231Y001309D01*
X018231Y001766D01*
X017868Y001766D01*
X017818Y001752D01*
X017772Y001726D01*
X017735Y001689D01*
X017708Y001643D01*
X017695Y001592D01*
X017695Y001308D01*
X018231Y001308D01*
X018231Y001193D01*
X017695Y001193D01*
X017695Y000958D01*
X015575Y000958D01*
X015575Y001193D01*
X015039Y001193D01*
X015039Y001308D01*
X015575Y001308D01*
X015575Y001592D01*
X015561Y001643D01*
X015535Y001689D01*
X015498Y001726D01*
X015452Y001752D01*
X015401Y001766D01*
X015039Y001766D01*
X015039Y001309D01*
X014924Y001309D01*
X014924Y001766D01*
X014561Y001766D01*
X014511Y001752D01*
X014465Y001726D01*
X014428Y001689D01*
X014401Y001643D01*
X014388Y001592D01*
X014388Y001308D01*
X014924Y001308D01*
X014924Y001193D01*
X014388Y001193D01*
X014388Y001190D01*
X014282Y001296D01*
X014282Y002050D01*
X014760Y002528D01*
X015450Y002528D01*
X015555Y002633D01*
X015555Y003412D01*
X015450Y003517D01*
X014513Y003517D01*
X014408Y003412D01*
X014408Y002826D01*
X013957Y002376D01*
X013822Y002241D01*
X013822Y001296D01*
X013822Y001105D01*
X014262Y000666D01*
X001135Y000666D01*
X001074Y000670D01*
X000955Y000702D01*
X014226Y000702D01*
X014027Y000901D02*
X000733Y000901D01*
X000849Y000763D02*
X000955Y000702D01*
X000667Y001099D02*
X013829Y001099D01*
X013822Y001298D02*
X000664Y001298D01*
X000664Y001496D02*
X013822Y001496D01*
X013822Y001695D02*
X000664Y001695D01*
X000664Y001893D02*
X013822Y001893D01*
X013822Y002092D02*
X000664Y002092D01*
X000664Y002290D02*
X013872Y002290D01*
X014070Y002489D02*
X000664Y002489D01*
X000664Y002687D02*
X014269Y002687D01*
X014408Y002886D02*
X000664Y002886D01*
X000664Y003084D02*
X014408Y003084D01*
X014408Y003283D02*
X000664Y003283D01*
X000664Y003482D02*
X014477Y003482D01*
X015485Y003482D02*
X017784Y003482D01*
X017715Y003283D02*
X015555Y003283D01*
X015555Y003084D02*
X017715Y003084D01*
X017715Y002886D02*
X015555Y002886D01*
X015555Y002687D02*
X017715Y002687D01*
X018862Y002687D02*
X019019Y002687D01*
X019019Y002489D02*
X014721Y002489D01*
X014522Y002290D02*
X019019Y002290D01*
X019019Y002092D02*
X014324Y002092D01*
X014282Y001893D02*
X019019Y001893D01*
X019019Y001695D02*
X018836Y001695D01*
X018882Y001496D02*
X019019Y001496D01*
X019019Y001298D02*
X018346Y001298D01*
X018289Y001251D02*
X018147Y001201D01*
X016729Y001201D01*
X016729Y006555D01*
X017359Y007185D01*
X017517Y007185D01*
X017619Y007142D01*
X017674Y007185D01*
X017832Y007185D01*
X017832Y009075D01*
X018147Y009390D01*
X018147Y009862D01*
X018289Y010001D01*
X018147Y010020D01*
X016572Y010020D01*
X016572Y014429D01*
X016572Y018681D01*
X014997Y018681D01*
X014981Y018751D01*
X014924Y018769D02*
X014332Y018769D01*
X014388Y018808D02*
X014388Y019092D01*
X014401Y019143D01*
X014428Y019189D01*
X014465Y019226D01*
X014511Y019252D01*
X014561Y019266D01*
X014924Y019266D01*
X014924Y018809D01*
X015039Y018809D01*
X015039Y019266D01*
X015401Y019266D01*
X015452Y019252D01*
X015498Y019226D01*
X015535Y019189D01*
X015561Y019143D01*
X015575Y019092D01*
X015575Y018808D01*
X015039Y018808D01*
X015039Y018693D01*
X015039Y018236D01*
X015401Y018236D01*
X015452Y018249D01*
X015498Y018276D01*
X015535Y018313D01*
X015561Y018359D01*
X015575Y018409D01*
X015575Y018693D01*
X015039Y018693D01*
X014924Y018693D01*
X014924Y018236D01*
X014561Y018236D01*
X014511Y018249D01*
X014465Y018276D01*
X014428Y018313D01*
X014401Y018359D01*
X014388Y018409D01*
X014388Y018693D01*
X014924Y018693D01*
X014924Y018808D01*
X014388Y018808D01*
X014388Y018968D02*
X014332Y018968D01*
X014332Y019166D02*
X014415Y019166D01*
X014332Y019365D02*
X021861Y019365D01*
X021861Y019386D02*
X021861Y019235D01*
X021919Y019096D01*
X022026Y018989D01*
X022166Y018931D01*
X022317Y018931D01*
X022457Y018989D01*
X022563Y019096D01*
X022621Y019235D01*
X022621Y019386D01*
X022563Y019526D01*
X022471Y019618D01*
X022471Y020324D01*
X022612Y020324D01*
X022717Y020429D01*
X022717Y021090D01*
X022674Y021134D01*
X022717Y021177D01*
X022717Y021746D01*
X023218Y021245D01*
X023128Y021208D01*
X023021Y021101D01*
X022964Y020961D01*
X022964Y020810D01*
X023021Y020670D01*
X023064Y020628D01*
X023064Y006041D01*
X021769Y004747D01*
X021663Y004747D01*
X021466Y004665D01*
X021316Y004515D01*
X021234Y004319D01*
X021234Y004106D01*
X021316Y003910D01*
X021466Y003759D01*
X021663Y003678D01*
X021875Y003678D01*
X022071Y003759D01*
X022222Y003910D01*
X022303Y004106D01*
X022303Y004319D01*
X022253Y004439D01*
X023502Y005688D01*
X023581Y005766D01*
X023624Y005869D01*
X023624Y017060D01*
X023657Y017026D01*
X025262Y015421D01*
X025262Y015011D01*
X024996Y014745D01*
X024953Y014642D01*
X024953Y014531D01*
X024953Y014406D01*
X024940Y014406D01*
X024835Y014301D01*
X024835Y013561D01*
X024940Y013456D01*
X025601Y013456D01*
X025631Y013485D01*
X025640Y013476D01*
X025686Y013449D01*
X025737Y013436D01*
X025991Y013436D01*
X025991Y013903D01*
X026047Y013903D01*
X026047Y013959D01*
X026475Y013959D01*
X026475Y014253D01*
X026461Y014303D01*
X026435Y014349D01*
X026398Y014386D01*
X026352Y014413D01*
X026301Y014426D01*
X026047Y014426D01*
X026047Y013959D01*
X025991Y013959D01*
X025991Y014426D01*
X025737Y014426D01*
X025686Y014413D01*
X025640Y014386D01*
X025631Y014377D01*
X025601Y014406D01*
X025513Y014406D01*
X025513Y014470D01*
X025809Y014766D01*
X026017Y014766D01*
X026122Y014871D01*
X026122Y016020D01*
X026017Y016126D01*
X025368Y016126D01*
X025359Y016117D01*
X024096Y017380D01*
X025650Y017380D01*
X025655Y017371D02*
X025692Y017334D01*
X025738Y017308D01*
X025789Y017294D01*
X026503Y017294D01*
X026503Y017984D01*
X026702Y017984D01*
X026702Y017294D01*
X027416Y017294D01*
X027467Y017308D01*
X027513Y017334D01*
X027550Y017371D01*
X027576Y017417D01*
X027590Y017468D01*
X027590Y017985D01*
X026703Y017985D01*
X026703Y018184D01*
X027590Y018184D01*
X027590Y018701D01*
X027576Y018752D01*
X027550Y018798D01*
X027513Y018835D01*
X027467Y018861D01*
X027416Y018875D01*
X026702Y018875D01*
X026702Y018185D01*
X026503Y018185D01*
X026503Y018875D01*
X026225Y018875D01*
X026243Y018920D01*
X026243Y019071D01*
X026185Y019211D01*
X026079Y019318D01*
X025939Y019376D01*
X025879Y019376D01*
X025406Y019849D01*
X025413Y019852D01*
X025613Y020053D01*
X025721Y020314D01*
X025721Y020597D01*
X025613Y020859D01*
X025413Y021059D01*
X025151Y021167D01*
X024868Y021167D01*
X024607Y021059D01*
X024407Y020859D01*
X024298Y020597D01*
X024298Y020314D01*
X024407Y020053D01*
X024607Y019852D01*
X024796Y019774D01*
X024796Y019728D01*
X024839Y019625D01*
X024917Y019546D01*
X025483Y018980D01*
X025483Y018920D01*
X025541Y018781D01*
X025616Y018706D01*
X025615Y018701D01*
X025615Y018184D01*
X026502Y018184D01*
X026502Y017985D01*
X025615Y017985D01*
X025615Y017468D01*
X025629Y017417D01*
X025655Y017371D01*
X025615Y017578D02*
X024096Y017578D01*
X024096Y017380D02*
X024096Y020987D01*
X024096Y021099D01*
X024053Y021202D01*
X022827Y022428D01*
X022890Y022473D01*
X022954Y022537D01*
X023007Y022610D01*
X023048Y022691D01*
X023076Y022777D01*
X023090Y022866D01*
X023090Y022887D01*
X022540Y022887D01*
X022540Y022937D01*
X022490Y022937D01*
X022490Y023487D01*
X022470Y023487D01*
X022380Y023472D01*
X022294Y023444D01*
X022214Y023403D01*
X022140Y023350D01*
X022076Y023286D01*
X022023Y023213D01*
X022005Y023178D01*
X021985Y023226D01*
X021829Y023382D01*
X021625Y023467D01*
X021405Y023467D01*
X021201Y023382D01*
X021044Y023226D01*
X021015Y023155D01*
X020985Y023226D01*
X020829Y023382D01*
X020625Y023467D01*
X020405Y023467D01*
X020201Y023382D01*
X020044Y023226D01*
X019960Y023022D01*
X019960Y022801D01*
X020044Y022597D01*
X020201Y022441D01*
X020279Y022409D01*
X020279Y021420D01*
X020414Y021286D01*
X020604Y021286D01*
X021767Y021286D01*
X021767Y021177D01*
X021811Y021134D01*
X021767Y021090D01*
X021767Y020429D01*
X021872Y020324D01*
X022011Y020324D01*
X022011Y019618D01*
X021919Y019526D01*
X021861Y019386D01*
X021957Y019564D02*
X015630Y019564D01*
X015634Y019568D02*
X015692Y019708D01*
X015692Y019859D01*
X015634Y019999D01*
X015527Y020105D01*
X015555Y020133D01*
X015555Y020341D01*
X017715Y020341D01*
X017715Y020133D01*
X017820Y020028D01*
X018757Y020028D01*
X018862Y020133D01*
X018862Y020912D01*
X018757Y021017D01*
X017820Y021017D01*
X017715Y020912D01*
X017715Y020801D01*
X015555Y020801D01*
X015555Y020912D01*
X015450Y021017D01*
X014513Y021017D01*
X014408Y020912D01*
X014408Y020133D01*
X014513Y020028D01*
X014767Y020028D01*
X014767Y020003D01*
X014902Y019868D01*
X014932Y019838D01*
X014932Y019708D01*
X014990Y019568D01*
X015097Y019461D01*
X015237Y019403D01*
X015388Y019403D01*
X015527Y019461D01*
X015634Y019568D01*
X015692Y019762D02*
X022011Y019762D01*
X022011Y019961D02*
X015650Y019961D01*
X015555Y020159D02*
X017715Y020159D01*
X018862Y020159D02*
X022011Y020159D01*
X021838Y020358D02*
X018862Y020358D01*
X018862Y020556D02*
X021767Y020556D01*
X021767Y020755D02*
X018862Y020755D01*
X018821Y020953D02*
X021767Y020953D01*
X021792Y021152D02*
X014400Y021152D01*
X014332Y021085D02*
X016731Y023483D01*
X016809Y023562D01*
X016844Y023647D01*
X016871Y023658D01*
X016989Y023775D01*
X017029Y023871D01*
X017068Y023775D01*
X017186Y023658D01*
X017339Y023594D01*
X017505Y023594D01*
X017659Y023658D01*
X017726Y023725D01*
X017746Y023676D01*
X017913Y023509D01*
X018131Y023418D01*
X018367Y023418D01*
X018585Y023509D01*
X018752Y023676D01*
X018842Y023894D01*
X018842Y024130D01*
X033349Y024130D01*
X033151Y023932D02*
X018842Y023932D01*
X018842Y024130D02*
X018752Y024348D01*
X018585Y024515D01*
X018367Y024605D01*
X018131Y024605D01*
X017913Y024515D01*
X017746Y024348D01*
X017726Y024299D01*
X017659Y024366D01*
X017505Y024429D01*
X017339Y024429D01*
X017186Y024366D01*
X017068Y024248D01*
X017029Y024152D01*
X016989Y024248D01*
X016871Y024366D01*
X016718Y024429D01*
X016552Y024429D01*
X016398Y024366D01*
X016281Y024248D01*
X016241Y024152D01*
X016201Y024248D01*
X016084Y024366D01*
X015931Y024429D01*
X015764Y024429D01*
X015611Y024366D01*
X015544Y024299D01*
X015524Y024348D01*
X015357Y024515D01*
X015139Y024605D01*
X014903Y024605D01*
X014685Y024515D01*
X014518Y024348D01*
X014427Y024130D01*
X014427Y023894D01*
X014518Y023676D01*
X014685Y023509D01*
X014903Y023418D01*
X015139Y023418D01*
X015357Y023509D01*
X015524Y023676D01*
X015544Y023725D01*
X015611Y023658D01*
X015764Y023594D01*
X015931Y023594D01*
X016084Y023658D01*
X016201Y023775D01*
X016241Y023871D01*
X016266Y023811D01*
X013815Y021359D01*
X013772Y021256D01*
X013772Y021145D01*
X013772Y009176D01*
X013815Y009074D01*
X013894Y008995D01*
X015190Y007699D01*
X015190Y007486D01*
X015156Y007452D01*
X015156Y006831D01*
X015160Y006827D01*
X015156Y006822D01*
X015156Y006201D01*
X015160Y006197D01*
X015156Y006192D01*
X015156Y005571D01*
X015261Y005466D01*
X016040Y005466D01*
X016146Y005571D01*
X016146Y005695D01*
X016319Y005695D01*
X016510Y005695D01*
X016644Y005830D01*
X016644Y007405D01*
X017147Y007907D01*
X017278Y007907D01*
X017417Y007965D01*
X017524Y008072D01*
X017582Y008212D01*
X017582Y008363D01*
X017524Y008503D01*
X017417Y008609D01*
X017278Y008667D01*
X017126Y008667D01*
X017098Y008655D01*
X017109Y008684D01*
X017109Y008835D01*
X017052Y008975D01*
X016945Y009082D01*
X016805Y009140D01*
X016654Y009140D01*
X016514Y009082D01*
X016407Y008975D01*
X016349Y008835D01*
X016349Y008684D01*
X016407Y008544D01*
X016499Y008452D01*
X016499Y008225D01*
X015870Y007595D01*
X015870Y007558D01*
X015750Y007558D01*
X015750Y007759D01*
X015750Y007871D01*
X015707Y007973D01*
X014332Y009348D01*
X014332Y021085D01*
X014332Y020953D02*
X014449Y020953D01*
X014408Y020755D02*
X014332Y020755D01*
X014332Y020556D02*
X014408Y020556D01*
X014408Y020358D02*
X014332Y020358D01*
X014332Y020159D02*
X014408Y020159D01*
X014332Y019961D02*
X014810Y019961D01*
X014932Y019762D02*
X014332Y019762D01*
X014332Y019564D02*
X014994Y019564D01*
X013772Y019564D02*
X000664Y019564D01*
X000664Y019762D02*
X013772Y019762D01*
X013772Y019961D02*
X000664Y019961D01*
X000664Y020159D02*
X013772Y020159D01*
X013772Y020358D02*
X000664Y020358D01*
X000664Y020556D02*
X013772Y020556D01*
X013772Y020755D02*
X000664Y020755D01*
X000664Y020953D02*
X013772Y020953D01*
X013772Y021152D02*
X000664Y021152D01*
X000664Y021350D02*
X013811Y021350D01*
X014005Y021549D02*
X000664Y021549D01*
X000664Y021748D02*
X014203Y021748D01*
X014402Y021946D02*
X000664Y021946D01*
X000664Y022145D02*
X014600Y022145D01*
X014799Y022343D02*
X000664Y022343D01*
X000664Y022542D02*
X014998Y022542D01*
X015196Y022740D02*
X000664Y022740D01*
X000664Y022939D02*
X015395Y022939D01*
X015593Y023137D02*
X000664Y023137D01*
X000664Y023336D02*
X015792Y023336D01*
X015990Y023534D02*
X015383Y023534D01*
X014659Y023534D02*
X000664Y023534D01*
X000664Y023733D02*
X014494Y023733D01*
X014427Y023932D02*
X000664Y023932D01*
X000664Y024130D02*
X014428Y024130D01*
X014510Y024329D02*
X000664Y024329D01*
X000664Y024527D02*
X014715Y024527D01*
X015327Y024527D02*
X017943Y024527D01*
X017738Y024329D02*
X017696Y024329D01*
X017149Y024329D02*
X016908Y024329D01*
X016635Y024012D02*
X016572Y023878D01*
X016572Y023720D01*
X014052Y021201D01*
X014052Y009232D01*
X015470Y007815D01*
X015470Y007185D01*
X015627Y007185D01*
X015651Y007142D01*
X015156Y007055D02*
X000664Y007055D01*
X000664Y006857D02*
X015156Y006857D01*
X015156Y006658D02*
X000664Y006658D01*
X000664Y006460D02*
X015156Y006460D01*
X015156Y006261D02*
X000664Y006261D01*
X000664Y006063D02*
X015156Y006063D01*
X015156Y005864D02*
X000664Y005864D01*
X000664Y005666D02*
X015156Y005666D01*
X015260Y005467D02*
X000664Y005467D01*
X000664Y005268D02*
X019019Y005268D01*
X019019Y005070D02*
X000664Y005070D01*
X000664Y004871D02*
X019019Y004871D01*
X019019Y004673D02*
X000664Y004673D01*
X000664Y004474D02*
X019019Y004474D01*
X019019Y004276D02*
X000664Y004276D01*
X000664Y004077D02*
X019019Y004077D01*
X019019Y003879D02*
X000664Y003879D01*
X000664Y003680D02*
X019019Y003680D01*
X019019Y003482D02*
X018793Y003482D01*
X019479Y003680D02*
X021658Y003680D01*
X021880Y003680D02*
X029750Y003680D01*
X029948Y003879D02*
X022191Y003879D01*
X022291Y004077D02*
X030147Y004077D01*
X030345Y004276D02*
X022303Y004276D01*
X022289Y004474D02*
X030544Y004474D01*
X030743Y004673D02*
X022487Y004673D01*
X022686Y004871D02*
X030941Y004871D01*
X031140Y005070D02*
X022884Y005070D01*
X023083Y005268D02*
X031338Y005268D01*
X031537Y005467D02*
X023282Y005467D01*
X023480Y005666D02*
X031735Y005666D01*
X031934Y005864D02*
X023621Y005864D01*
X023624Y006063D02*
X032132Y006063D01*
X032331Y006261D02*
X023624Y006261D01*
X023624Y006460D02*
X032529Y006460D01*
X032728Y006658D02*
X023624Y006658D01*
X023624Y006857D02*
X032927Y006857D01*
X033014Y007055D02*
X032744Y007055D01*
X032477Y007185D02*
X031218Y007185D01*
X031218Y007815D01*
X030986Y007639D01*
X030903Y007500D01*
X028855Y007500D01*
X028855Y013327D01*
X028698Y013484D01*
X028226Y013957D01*
X028163Y013960D01*
X028068Y014114D01*
X027596Y014586D01*
X027596Y015374D01*
X027512Y015446D01*
X027082Y015394D02*
X027052Y015394D01*
X027052Y015421D02*
X026628Y015421D01*
X026628Y015471D01*
X027052Y015471D01*
X027052Y015972D01*
X027039Y016023D01*
X027012Y016069D01*
X026975Y016106D01*
X026930Y016132D01*
X026879Y016146D01*
X026627Y016146D01*
X026627Y015471D01*
X026577Y015471D01*
X026577Y015421D01*
X026152Y015421D01*
X026152Y014920D01*
X026166Y014869D01*
X026192Y014823D01*
X026230Y014786D01*
X026275Y014760D01*
X026326Y014746D01*
X026577Y014746D01*
X026577Y015421D01*
X026627Y015421D01*
X026627Y014746D01*
X026879Y014746D01*
X026930Y014760D01*
X026975Y014786D01*
X027012Y014823D01*
X027039Y014869D01*
X027052Y014920D01*
X027052Y015421D01*
X027052Y015593D02*
X027082Y015593D01*
X027082Y015791D02*
X027052Y015791D01*
X027048Y015990D02*
X027082Y015990D01*
X026651Y016004D02*
X027753Y017106D01*
X029170Y015689D01*
X029170Y009547D01*
X030430Y008287D01*
X030457Y008168D01*
X030588Y008287D01*
X030903Y008602D01*
X031060Y008602D01*
X031178Y008662D01*
X031178Y008662D01*
X031178Y008364D01*
X030961Y008364D01*
X031007Y008318D01*
X031033Y008273D01*
X031047Y008222D01*
X031047Y008209D01*
X031088Y008209D01*
X031152Y008145D01*
X031371Y008364D01*
X031178Y008364D01*
X031178Y008662D01*
X031178Y008644D02*
X031178Y008644D01*
X031178Y008445D02*
X031178Y008445D01*
X031254Y008247D02*
X031040Y008247D01*
X030721Y008392D02*
X030497Y008168D01*
X030457Y008208D01*
X030677Y008428D01*
X030701Y008404D01*
X030721Y008392D01*
X030575Y008247D02*
X030496Y008247D01*
X030418Y008247D02*
X030339Y008247D01*
X030377Y008048D02*
X030298Y008048D01*
X030178Y007850D02*
X030099Y007850D01*
X030075Y007850D02*
X029135Y007850D01*
X029135Y008048D02*
X029889Y008048D01*
X029898Y008247D02*
X029135Y008247D01*
X029135Y008445D02*
X030090Y008445D01*
X030140Y008445D02*
X030219Y008445D01*
X030288Y008644D02*
X029135Y008644D01*
X029135Y008842D02*
X030125Y008842D01*
X030050Y009041D02*
X029135Y009041D01*
X029135Y009239D02*
X030087Y009239D01*
X030314Y009438D02*
X029135Y009438D01*
X029135Y009636D02*
X030644Y009636D01*
X030605Y009835D02*
X029135Y009835D01*
X029135Y010034D02*
X030194Y010034D01*
X030061Y010232D02*
X029135Y010232D01*
X029135Y010431D02*
X030059Y010431D01*
X030187Y010629D02*
X029135Y010629D01*
X029135Y010828D02*
X030644Y010828D01*
X030644Y011026D02*
X029135Y011026D01*
X029135Y011225D02*
X031412Y011225D01*
X031412Y011423D02*
X029135Y011423D01*
X029135Y011622D02*
X031412Y011622D01*
X031424Y011820D02*
X029135Y011820D01*
X029135Y012019D02*
X031460Y012019D01*
X031460Y012217D02*
X029135Y012217D01*
X029135Y012416D02*
X031460Y012416D01*
X031460Y012615D02*
X029135Y012615D01*
X029135Y012813D02*
X031460Y012813D01*
X031460Y013012D02*
X029135Y013012D01*
X029135Y013210D02*
X031460Y013210D01*
X031460Y013409D02*
X029124Y013409D01*
X029058Y013607D02*
X031460Y013607D01*
X031460Y013806D02*
X028914Y013806D01*
X028598Y014004D02*
X031460Y014004D01*
X031460Y014203D02*
X028598Y014203D01*
X028527Y014401D02*
X031460Y014401D01*
X031460Y014600D02*
X027978Y014600D01*
X027876Y014799D02*
X031460Y014799D01*
X031460Y014997D02*
X027942Y014997D01*
X027942Y015196D02*
X031460Y015196D01*
X031460Y015394D02*
X027942Y015394D01*
X027942Y015593D02*
X031460Y015593D01*
X031460Y015791D02*
X027942Y015791D01*
X027942Y015990D02*
X031460Y015990D01*
X031460Y016188D02*
X025287Y016188D01*
X025089Y016387D02*
X031460Y016387D01*
X031460Y016585D02*
X024890Y016585D01*
X024692Y016784D02*
X031460Y016784D01*
X031460Y016983D02*
X024493Y016983D01*
X024295Y017181D02*
X031460Y017181D01*
X031460Y017380D02*
X027555Y017380D01*
X027590Y017578D02*
X031460Y017578D01*
X031460Y017777D02*
X027590Y017777D01*
X027590Y017975D02*
X031460Y017975D01*
X031460Y018174D02*
X026703Y018174D01*
X026651Y018209D02*
X026602Y018084D01*
X026493Y018209D01*
X026493Y020571D01*
X025863Y021201D01*
X025863Y021988D01*
X025076Y022775D01*
X025010Y022818D01*
X025087Y022895D02*
X025738Y022895D01*
X025729Y022961D01*
X025704Y023053D01*
X025667Y023142D01*
X025619Y023225D01*
X025561Y023301D01*
X025493Y023369D01*
X025417Y023427D01*
X025334Y023475D01*
X025246Y023512D01*
X025153Y023537D01*
X025087Y023545D01*
X025087Y022895D01*
X024933Y022895D01*
X024933Y023545D01*
X024867Y023537D01*
X024774Y023512D01*
X024686Y023475D01*
X024603Y023427D01*
X024527Y023369D01*
X024459Y023301D01*
X024400Y023225D01*
X024352Y023142D01*
X024316Y023053D01*
X024291Y022961D01*
X024282Y022895D01*
X024933Y022895D01*
X024933Y022741D01*
X024282Y022741D01*
X024291Y022675D01*
X024316Y022582D01*
X024352Y022494D01*
X024400Y022410D01*
X024459Y022334D01*
X024527Y022267D01*
X024603Y022208D01*
X024686Y022160D01*
X024774Y022124D01*
X024867Y022099D01*
X024933Y022090D01*
X024933Y022740D01*
X025087Y022740D01*
X025087Y022090D01*
X025153Y022099D01*
X025246Y022124D01*
X025334Y022160D01*
X025417Y022208D01*
X025493Y022267D01*
X025561Y022334D01*
X025619Y022410D01*
X025667Y022494D01*
X025704Y022582D01*
X025729Y022675D01*
X025738Y022741D01*
X025087Y022741D01*
X025087Y022895D01*
X025087Y022939D02*
X024933Y022939D01*
X024933Y023137D02*
X025087Y023137D01*
X025087Y023336D02*
X024933Y023336D01*
X024933Y023534D02*
X025087Y023534D01*
X025161Y023534D02*
X032754Y023534D01*
X032555Y023336D02*
X025526Y023336D01*
X025669Y023137D02*
X032357Y023137D01*
X032158Y022939D02*
X025732Y022939D01*
X025738Y022740D02*
X031960Y022740D01*
X031761Y022542D02*
X025687Y022542D01*
X025568Y022343D02*
X026707Y022343D01*
X026719Y022348D02*
X026457Y022240D01*
X026257Y022040D01*
X026149Y021778D01*
X026149Y021495D01*
X026257Y021234D01*
X026457Y021033D01*
X026719Y020925D01*
X027002Y020925D01*
X027263Y021033D01*
X027464Y021234D01*
X027572Y021495D01*
X027572Y021778D01*
X027464Y022040D01*
X027263Y022240D01*
X027002Y022348D01*
X026719Y022348D01*
X027014Y022343D02*
X031563Y022343D01*
X031460Y022145D02*
X027359Y022145D01*
X027502Y021946D02*
X031460Y021946D01*
X031460Y021748D02*
X027572Y021748D01*
X027572Y021549D02*
X031460Y021549D01*
X031460Y021350D02*
X027512Y021350D01*
X027382Y021152D02*
X031460Y021152D01*
X031460Y020953D02*
X027070Y020953D01*
X026651Y020953D02*
X025518Y020953D01*
X025656Y020755D02*
X031460Y020755D01*
X031460Y020556D02*
X025721Y020556D01*
X025721Y020358D02*
X031460Y020358D01*
X031460Y020159D02*
X025657Y020159D01*
X025521Y019961D02*
X031460Y019961D01*
X031460Y019762D02*
X025493Y019762D01*
X025692Y019564D02*
X031460Y019564D01*
X031460Y019365D02*
X025965Y019365D01*
X026204Y019166D02*
X031460Y019166D01*
X031460Y018968D02*
X026243Y018968D01*
X026503Y018769D02*
X026702Y018769D01*
X026702Y018571D02*
X026503Y018571D01*
X026503Y018372D02*
X026702Y018372D01*
X026651Y018209D02*
X027753Y017106D01*
X026702Y017380D02*
X026503Y017380D01*
X026503Y017578D02*
X026702Y017578D01*
X026702Y017777D02*
X026503Y017777D01*
X026503Y017975D02*
X026702Y017975D01*
X026502Y018174D02*
X024096Y018174D01*
X024096Y018372D02*
X025615Y018372D01*
X025615Y018571D02*
X024096Y018571D01*
X024096Y018769D02*
X025552Y018769D01*
X025483Y018968D02*
X024096Y018968D01*
X024096Y019166D02*
X025297Y019166D01*
X025098Y019365D02*
X024096Y019365D01*
X024096Y019564D02*
X024900Y019564D01*
X024796Y019762D02*
X024096Y019762D01*
X024096Y019961D02*
X024499Y019961D01*
X024363Y020159D02*
X024096Y020159D01*
X024096Y020358D02*
X024298Y020358D01*
X024298Y020556D02*
X024096Y020556D01*
X024096Y020755D02*
X024364Y020755D01*
X024502Y020953D02*
X024096Y020953D01*
X024074Y021152D02*
X024832Y021152D01*
X025188Y021152D02*
X026339Y021152D01*
X026209Y021350D02*
X023905Y021350D01*
X023706Y021549D02*
X026149Y021549D01*
X026149Y021748D02*
X023508Y021748D01*
X023309Y021946D02*
X026218Y021946D01*
X026362Y022145D02*
X025296Y022145D01*
X025087Y022145D02*
X024933Y022145D01*
X024933Y022343D02*
X025087Y022343D01*
X025087Y022542D02*
X024933Y022542D01*
X024933Y022740D02*
X025087Y022740D01*
X024332Y022542D02*
X022957Y022542D01*
X022912Y022343D02*
X024452Y022343D01*
X024723Y022145D02*
X023111Y022145D01*
X022556Y022303D02*
X021454Y022303D01*
X021454Y022775D01*
X021515Y022912D01*
X022070Y022887D02*
X022070Y022937D01*
X022490Y022937D01*
X022490Y022887D01*
X022070Y022887D01*
X022399Y022933D02*
X022515Y022912D01*
X022540Y022937D02*
X022540Y023487D01*
X022560Y023487D01*
X022650Y023472D01*
X022736Y023444D01*
X022816Y023403D01*
X022890Y023350D01*
X022954Y023286D01*
X023007Y023213D01*
X023048Y023132D01*
X023076Y023046D01*
X023090Y022957D01*
X023090Y022937D01*
X022540Y022937D01*
X022540Y022939D02*
X022490Y022939D01*
X022399Y022933D02*
X022399Y023878D01*
X020509Y023878D01*
X019564Y022933D01*
X019564Y020098D01*
X018304Y018838D01*
X018289Y018751D01*
X018147Y018681D01*
X016572Y018681D01*
X015575Y018571D02*
X017695Y018571D01*
X017695Y018693D02*
X017695Y018409D01*
X017708Y018359D01*
X017735Y018313D01*
X017772Y018276D01*
X017818Y018249D01*
X017868Y018236D01*
X018231Y018236D01*
X018231Y018693D01*
X018346Y018693D01*
X018346Y018236D01*
X018709Y018236D01*
X018759Y018249D01*
X018805Y018276D01*
X018842Y018313D01*
X018869Y018359D01*
X018882Y018409D01*
X018882Y018693D01*
X018346Y018693D01*
X018346Y018808D01*
X018882Y018808D01*
X018882Y019092D01*
X018869Y019143D01*
X018842Y019189D01*
X018805Y019226D01*
X018759Y019252D01*
X018709Y019266D01*
X018346Y019266D01*
X018346Y018809D01*
X018231Y018809D01*
X018231Y019266D01*
X017868Y019266D01*
X017818Y019252D01*
X017772Y019226D01*
X017735Y019189D01*
X017708Y019143D01*
X017695Y019092D01*
X017695Y018808D01*
X018231Y018808D01*
X018231Y018693D01*
X017695Y018693D01*
X017695Y018968D02*
X015575Y018968D01*
X015548Y019166D02*
X017722Y019166D01*
X018231Y019166D02*
X018346Y019166D01*
X018346Y018968D02*
X018231Y018968D01*
X018231Y018769D02*
X015039Y018769D01*
X015039Y018571D02*
X014924Y018571D01*
X014924Y018372D02*
X015039Y018372D01*
X015565Y018372D02*
X017705Y018372D01*
X018231Y018372D02*
X018346Y018372D01*
X018346Y018571D02*
X018231Y018571D01*
X018346Y018769D02*
X023064Y018769D01*
X023064Y018571D02*
X018882Y018571D01*
X018872Y018372D02*
X023064Y018372D01*
X023064Y018174D02*
X014332Y018174D01*
X014332Y018372D02*
X014398Y018372D01*
X014388Y018571D02*
X014332Y018571D01*
X013772Y018571D02*
X000664Y018571D01*
X000664Y018769D02*
X013772Y018769D01*
X013772Y018968D02*
X000664Y018968D01*
X000664Y019166D02*
X013772Y019166D01*
X013772Y019365D02*
X000664Y019365D01*
X000664Y018372D02*
X013772Y018372D01*
X013772Y018174D02*
X000664Y018174D01*
X000664Y017975D02*
X013772Y017975D01*
X013772Y017777D02*
X000664Y017777D01*
X000664Y017578D02*
X013772Y017578D01*
X013772Y017380D02*
X000664Y017380D01*
X000664Y017181D02*
X013772Y017181D01*
X013772Y016983D02*
X000664Y016983D01*
X000664Y016784D02*
X013772Y016784D01*
X013772Y016585D02*
X000664Y016585D01*
X000664Y016387D02*
X013772Y016387D01*
X013772Y016188D02*
X000664Y016188D01*
X000664Y015990D02*
X013772Y015990D01*
X013772Y015791D02*
X000664Y015791D01*
X000664Y015593D02*
X013772Y015593D01*
X013772Y015394D02*
X000664Y015394D01*
X000664Y015196D02*
X013772Y015196D01*
X013772Y014997D02*
X000664Y014997D01*
X000664Y014799D02*
X013772Y014799D01*
X013772Y014600D02*
X000664Y014600D01*
X000664Y014401D02*
X013772Y014401D01*
X013772Y014203D02*
X000664Y014203D01*
X000664Y014004D02*
X013772Y014004D01*
X013772Y013806D02*
X000664Y013806D01*
X000664Y013607D02*
X013772Y013607D01*
X013772Y013409D02*
X000664Y013409D01*
X000664Y013210D02*
X013772Y013210D01*
X013772Y013012D02*
X000664Y013012D01*
X000664Y012813D02*
X013772Y012813D01*
X013772Y012615D02*
X000664Y012615D01*
X000664Y012416D02*
X013772Y012416D01*
X013772Y012217D02*
X000664Y012217D01*
X000664Y012019D02*
X013772Y012019D01*
X013772Y011820D02*
X000664Y011820D01*
X000664Y011622D02*
X013772Y011622D01*
X013772Y011423D02*
X000664Y011423D01*
X000664Y011225D02*
X013772Y011225D01*
X013772Y011026D02*
X000664Y011026D01*
X000664Y010828D02*
X013772Y010828D01*
X013772Y010629D02*
X000664Y010629D01*
X000664Y010431D02*
X013772Y010431D01*
X013772Y010232D02*
X000664Y010232D01*
X000664Y010034D02*
X013772Y010034D01*
X013772Y009835D02*
X000664Y009835D01*
X000664Y009636D02*
X013772Y009636D01*
X013772Y009438D02*
X000664Y009438D01*
X000664Y009239D02*
X013772Y009239D01*
X013848Y009041D02*
X000664Y009041D01*
X000664Y008842D02*
X014046Y008842D01*
X014245Y008644D02*
X000664Y008644D01*
X000664Y008445D02*
X014443Y008445D01*
X014642Y008247D02*
X000664Y008247D01*
X000664Y008048D02*
X014840Y008048D01*
X015039Y007850D02*
X000664Y007850D01*
X000664Y007651D02*
X015190Y007651D01*
X015156Y007452D02*
X000664Y007452D01*
X000664Y007254D02*
X015156Y007254D01*
X015750Y007651D02*
X015925Y007651D01*
X015750Y007850D02*
X016124Y007850D01*
X016323Y008048D02*
X015632Y008048D01*
X015434Y008247D02*
X016499Y008247D01*
X016499Y008445D02*
X015235Y008445D01*
X015037Y008644D02*
X016366Y008644D01*
X016352Y008842D02*
X014838Y008842D01*
X014640Y009041D02*
X016473Y009041D01*
X016986Y009041D02*
X019019Y009041D01*
X019019Y009239D02*
X014441Y009239D01*
X014332Y009438D02*
X019019Y009438D01*
X019019Y009636D02*
X018876Y009636D01*
X018882Y009835D02*
X019019Y009835D01*
X019019Y010034D02*
X018346Y010034D01*
X018231Y010034D02*
X015039Y010034D01*
X015039Y010058D02*
X015575Y010058D01*
X015575Y010342D01*
X015561Y010393D01*
X015535Y010439D01*
X015498Y010476D01*
X015452Y010502D01*
X015401Y010516D01*
X015039Y010516D01*
X015039Y010059D01*
X014924Y010059D01*
X014924Y010516D01*
X014561Y010516D01*
X014511Y010502D01*
X014465Y010476D01*
X014428Y010439D01*
X014401Y010393D01*
X014388Y010342D01*
X014388Y010058D01*
X014924Y010058D01*
X014924Y009943D01*
X015039Y009943D01*
X015039Y009486D01*
X015401Y009486D01*
X015452Y009499D01*
X015498Y009526D01*
X015535Y009563D01*
X015561Y009609D01*
X015575Y009659D01*
X015575Y009943D01*
X015039Y009943D01*
X015039Y010058D01*
X014997Y010020D02*
X014981Y010001D01*
X014997Y010020D02*
X016572Y010020D01*
X015575Y009835D02*
X017695Y009835D01*
X017695Y009943D02*
X017695Y009659D01*
X017708Y009609D01*
X017735Y009563D01*
X017772Y009526D01*
X017818Y009499D01*
X017868Y009486D01*
X018231Y009486D01*
X018231Y009943D01*
X017695Y009943D01*
X017695Y010232D02*
X015575Y010232D01*
X015540Y010431D02*
X017730Y010431D01*
X018231Y010431D02*
X018346Y010431D01*
X018346Y010232D02*
X018231Y010232D01*
X018629Y010629D02*
X014332Y010629D01*
X014332Y010431D02*
X014423Y010431D01*
X014388Y010232D02*
X014332Y010232D01*
X014332Y010034D02*
X014924Y010034D01*
X014924Y009943D02*
X014388Y009943D01*
X014388Y009659D01*
X014401Y009609D01*
X014428Y009563D01*
X014465Y009526D01*
X014511Y009499D01*
X014561Y009486D01*
X014924Y009486D01*
X014924Y009943D01*
X014924Y009835D02*
X015039Y009835D01*
X015039Y009636D02*
X014924Y009636D01*
X014394Y009636D02*
X014332Y009636D01*
X014332Y009835D02*
X014388Y009835D01*
X015569Y009636D02*
X017701Y009636D01*
X018231Y009636D02*
X018346Y009636D01*
X018346Y009835D02*
X018231Y009835D01*
X018882Y010232D02*
X019019Y010232D01*
X019479Y010232D02*
X021306Y010232D01*
X021316Y010209D02*
X021466Y010059D01*
X021663Y009977D01*
X021875Y009977D01*
X022071Y010059D01*
X022222Y010209D01*
X022303Y010405D01*
X022303Y010618D01*
X022222Y010814D01*
X022071Y010965D01*
X021875Y011046D01*
X021663Y011046D01*
X021466Y010965D01*
X021316Y010814D01*
X021234Y010618D01*
X021234Y010405D01*
X021316Y010209D01*
X021234Y010431D02*
X019478Y010431D01*
X019280Y010629D02*
X021239Y010629D01*
X021329Y010828D02*
X019081Y010828D01*
X018883Y011026D02*
X021615Y011026D01*
X021923Y011026D02*
X023064Y011026D01*
X023064Y010828D02*
X022208Y010828D01*
X022298Y010629D02*
X023064Y010629D01*
X023064Y010431D02*
X022303Y010431D01*
X022231Y010232D02*
X023064Y010232D01*
X023064Y010034D02*
X022011Y010034D01*
X021527Y010034D02*
X019479Y010034D01*
X019479Y009835D02*
X023064Y009835D01*
X023064Y009636D02*
X019479Y009636D01*
X019479Y009438D02*
X023064Y009438D01*
X023064Y009239D02*
X019479Y009239D01*
X019479Y009041D02*
X023064Y009041D01*
X023064Y008842D02*
X019479Y008842D01*
X019479Y008644D02*
X023064Y008644D01*
X023064Y008445D02*
X019479Y008445D01*
X019479Y008247D02*
X023064Y008247D01*
X023064Y008048D02*
X019479Y008048D01*
X019479Y007850D02*
X023064Y007850D01*
X023064Y007651D02*
X019479Y007651D01*
X019479Y007452D02*
X023064Y007452D01*
X023064Y007254D02*
X019479Y007254D01*
X019479Y007055D02*
X023064Y007055D01*
X023064Y006857D02*
X019479Y006857D01*
X019479Y006658D02*
X023064Y006658D01*
X023064Y006460D02*
X019479Y006460D01*
X019479Y006261D02*
X023064Y006261D01*
X023064Y006063D02*
X019479Y006063D01*
X019479Y005864D02*
X022887Y005864D01*
X022688Y005666D02*
X019479Y005666D01*
X019479Y005467D02*
X022490Y005467D01*
X022291Y005268D02*
X019479Y005268D01*
X019479Y005070D02*
X022093Y005070D01*
X021894Y004871D02*
X019479Y004871D01*
X019479Y004673D02*
X021484Y004673D01*
X021299Y004474D02*
X019479Y004474D01*
X019479Y004276D02*
X021234Y004276D01*
X021246Y004077D02*
X019479Y004077D01*
X019479Y003879D02*
X021347Y003879D01*
X021769Y004212D02*
X021769Y004350D01*
X023344Y005925D01*
X023344Y020886D01*
X023073Y021152D02*
X022692Y021152D01*
X022717Y021350D02*
X023113Y021350D01*
X022914Y021549D02*
X022717Y021549D01*
X022717Y020953D02*
X022964Y020953D01*
X022986Y020755D02*
X022717Y020755D01*
X022717Y020556D02*
X023064Y020556D01*
X023064Y020358D02*
X022646Y020358D01*
X022471Y020159D02*
X023064Y020159D01*
X023064Y019961D02*
X022471Y019961D01*
X022471Y019762D02*
X023064Y019762D01*
X023064Y019564D02*
X022526Y019564D01*
X022621Y019365D02*
X023064Y019365D01*
X023064Y019166D02*
X022593Y019166D01*
X022406Y018968D02*
X023064Y018968D01*
X022076Y018968D02*
X018882Y018968D01*
X018855Y019166D02*
X021890Y019166D01*
X023064Y017975D02*
X014332Y017975D01*
X014332Y017777D02*
X023064Y017777D01*
X023064Y017578D02*
X014332Y017578D01*
X014332Y017380D02*
X023064Y017380D01*
X023064Y017181D02*
X022154Y017181D01*
X022222Y017114D02*
X022071Y017264D01*
X021875Y017345D01*
X021663Y017345D01*
X021466Y017264D01*
X021316Y017114D01*
X021234Y016917D01*
X021234Y016705D01*
X021316Y016508D01*
X021466Y016358D01*
X021663Y016277D01*
X021875Y016277D01*
X022071Y016358D01*
X022222Y016508D01*
X022303Y016705D01*
X022303Y016917D01*
X022222Y017114D01*
X022276Y016983D02*
X023064Y016983D01*
X023064Y016784D02*
X022303Y016784D01*
X022254Y016585D02*
X023064Y016585D01*
X023064Y016387D02*
X022100Y016387D01*
X021437Y016387D02*
X018862Y016387D01*
X018862Y016244D02*
X018862Y016537D01*
X018757Y016642D01*
X017820Y016642D01*
X017715Y016537D01*
X017715Y016491D01*
X017592Y016541D01*
X017441Y016541D01*
X017302Y016483D01*
X017195Y016376D01*
X017137Y016237D01*
X017137Y016086D01*
X017195Y015946D01*
X017302Y015839D01*
X017441Y015781D01*
X017592Y015781D01*
X017715Y015832D01*
X017715Y015758D01*
X017820Y015653D01*
X018757Y015653D01*
X018780Y015676D01*
X020916Y013539D01*
X020916Y013408D01*
X020974Y013269D01*
X021081Y013162D01*
X021221Y013104D01*
X021372Y013104D01*
X021512Y013162D01*
X021619Y013269D01*
X021676Y013408D01*
X021676Y013560D01*
X021619Y013699D01*
X021512Y013806D01*
X023064Y013806D01*
X023064Y014004D02*
X021101Y014004D01*
X021242Y013864D02*
X018862Y016244D01*
X018917Y016188D02*
X023064Y016188D01*
X023064Y015990D02*
X019116Y015990D01*
X019314Y015791D02*
X023064Y015791D01*
X023064Y015593D02*
X019513Y015593D01*
X019711Y015394D02*
X023064Y015394D01*
X023064Y015196D02*
X019910Y015196D01*
X020109Y014997D02*
X023064Y014997D01*
X023064Y014799D02*
X020307Y014799D01*
X020506Y014600D02*
X023064Y014600D01*
X023064Y014401D02*
X020704Y014401D01*
X020903Y014203D02*
X023064Y014203D01*
X023624Y014203D02*
X024835Y014203D01*
X024835Y014004D02*
X023624Y014004D01*
X023624Y013806D02*
X024835Y013806D01*
X024835Y013607D02*
X023624Y013607D01*
X023624Y013409D02*
X028318Y013409D01*
X028434Y013210D02*
X023624Y013210D01*
X023624Y013012D02*
X028575Y013012D01*
X028575Y012813D02*
X023624Y012813D01*
X023624Y012615D02*
X028575Y012615D01*
X028575Y012416D02*
X023624Y012416D01*
X023624Y012217D02*
X028575Y012217D01*
X028575Y012019D02*
X023624Y012019D01*
X023624Y011820D02*
X028575Y011820D01*
X028575Y011622D02*
X023624Y011622D01*
X023624Y011423D02*
X028575Y011423D01*
X028575Y011225D02*
X023624Y011225D01*
X023624Y011026D02*
X028575Y011026D01*
X028575Y010828D02*
X023624Y010828D01*
X023624Y010629D02*
X028575Y010629D01*
X028575Y010431D02*
X023624Y010431D01*
X023624Y010232D02*
X028575Y010232D01*
X028575Y010034D02*
X023624Y010034D01*
X023624Y009835D02*
X028575Y009835D01*
X028575Y009636D02*
X023624Y009636D01*
X023624Y009438D02*
X028575Y009438D01*
X028575Y009239D02*
X023624Y009239D01*
X023624Y009041D02*
X028575Y009041D01*
X028575Y008842D02*
X023624Y008842D01*
X023624Y008644D02*
X028575Y008644D01*
X028575Y008445D02*
X023624Y008445D01*
X023624Y008247D02*
X028575Y008247D01*
X028575Y008048D02*
X023624Y008048D01*
X023624Y007850D02*
X028575Y007850D01*
X028575Y007651D02*
X023624Y007651D01*
X023624Y007452D02*
X028575Y007452D01*
X028718Y007254D02*
X023624Y007254D01*
X023624Y007055D02*
X030968Y007055D01*
X030986Y007639D02*
X031060Y007657D01*
X031218Y007815D01*
X031690Y008287D01*
X031690Y008150D01*
X032477Y007185D02*
X032950Y007657D01*
X032950Y008150D01*
X034755Y008247D02*
X043221Y008247D01*
X043221Y008445D02*
X034897Y008445D01*
X034941Y008644D02*
X034945Y008644D01*
X035487Y009041D02*
X042326Y009041D01*
X042326Y009239D02*
X035535Y009239D01*
X035481Y009438D02*
X042326Y009438D01*
X042326Y009636D02*
X035624Y009636D01*
X035692Y009835D02*
X042326Y009835D01*
X042326Y010034D02*
X035652Y010034D01*
X035432Y010232D02*
X042326Y010232D01*
X042326Y010431D02*
X035535Y010431D01*
X035509Y010629D02*
X036388Y010629D01*
X036217Y010828D02*
X035337Y010828D01*
X035325Y011026D02*
X036192Y011026D01*
X036295Y011225D02*
X035524Y011225D01*
X035594Y011295D02*
X035620Y011341D01*
X035634Y011391D01*
X035634Y011444D01*
X035620Y011495D01*
X035594Y011541D01*
X035414Y011720D01*
X035084Y011390D01*
X035386Y011087D01*
X035594Y011295D01*
X035634Y011423D02*
X036706Y011423D01*
X036904Y011622D02*
X035512Y011622D01*
X035316Y011622D02*
X035236Y011622D01*
X035314Y011820D02*
X037103Y011820D01*
X037301Y012019D02*
X035085Y012019D01*
X034889Y012217D02*
X037500Y012217D01*
X037698Y012416D02*
X034690Y012416D01*
X034357Y012615D02*
X037759Y012615D01*
X037759Y012813D02*
X032235Y012813D01*
X032235Y012615D02*
X033748Y012615D01*
X033672Y012416D02*
X032235Y012416D01*
X032235Y012217D02*
X033709Y012217D01*
X033935Y012019D02*
X032235Y012019D01*
X033895Y011437D02*
X033895Y011379D01*
X033895Y011437D02*
X034367Y011909D01*
X034515Y011919D01*
X034052Y012382D01*
X034308Y011454D02*
X034413Y011349D01*
X034454Y011349D01*
X034454Y011336D01*
X034468Y011285D01*
X034494Y011239D01*
X034568Y011165D01*
X034407Y011165D01*
X034407Y010867D01*
X034406Y010867D01*
X034406Y011165D01*
X034173Y011165D01*
X034173Y011319D01*
X034173Y011319D01*
X034308Y011454D01*
X034277Y011423D02*
X034339Y011423D01*
X034173Y011225D02*
X034509Y011225D01*
X034407Y011026D02*
X034406Y011026D01*
X034525Y010964D02*
X034407Y010867D01*
X034525Y010964D02*
X034682Y010964D01*
X034997Y011279D01*
X035044Y011390D01*
X035942Y010492D01*
X038462Y010492D01*
X038462Y015689D01*
X038777Y016004D01*
X038777Y016634D01*
X038740Y016758D01*
X038777Y016791D01*
X038777Y018366D01*
X038746Y018447D01*
X038777Y018523D01*
X038777Y018996D01*
X041769Y021988D01*
X041885Y022137D01*
X041885Y022137D01*
X041885Y022637D01*
X042092Y022637D01*
X042385Y022930D01*
X042385Y023136D01*
X041885Y023136D01*
X041885Y022637D01*
X042092Y022637D01*
X042385Y022344D01*
X042385Y022137D01*
X041885Y022137D01*
X041885Y022637D01*
X041885Y023136D01*
X041885Y023136D01*
X041885Y023137D01*
X041885Y023137D01*
X041885Y023637D01*
X042092Y023637D01*
X042385Y023344D01*
X042385Y023137D01*
X041885Y023137D01*
X041885Y023637D01*
X041678Y023637D01*
X041385Y023344D01*
X041385Y023137D01*
X041885Y023137D01*
X041885Y023137D01*
X041926Y023248D01*
X042714Y024035D01*
X046493Y024035D01*
X046493Y023720D01*
X048698Y021516D01*
X048698Y024035D01*
X048855Y024193D01*
X048855Y024665D01*
X049485Y024665D01*
X049619Y024642D01*
X049104Y024726D02*
X048770Y024726D01*
X048770Y024924D02*
X049110Y024924D01*
X049104Y024527D02*
X048770Y024527D01*
X048770Y024329D02*
X049118Y024329D01*
X049124Y024130D02*
X048646Y024130D01*
X048455Y023932D02*
X049124Y023932D01*
X049124Y023733D02*
X048455Y023733D01*
X048455Y023534D02*
X049124Y023534D01*
X049124Y023336D02*
X048324Y023336D01*
X048146Y023137D02*
X049124Y023137D01*
X048984Y022939D02*
X043365Y022939D01*
X043365Y022938D02*
X043084Y022657D01*
X042686Y022657D01*
X042405Y022938D01*
X042405Y023335D01*
X042686Y023617D01*
X043084Y023617D01*
X043365Y023335D01*
X043365Y022938D01*
X043365Y023137D02*
X047156Y023137D01*
X047156Y023336D02*
X043364Y023336D01*
X043166Y023534D02*
X047156Y023534D01*
X046731Y023733D02*
X041054Y023733D01*
X041054Y023932D02*
X046597Y023932D01*
X046594Y024130D02*
X041054Y024130D01*
X041054Y024329D02*
X046722Y024329D01*
X046611Y024527D02*
X041054Y024527D01*
X041054Y024726D02*
X046586Y024726D01*
X046687Y024924D02*
X000667Y024924D01*
X000664Y024726D02*
X033945Y024726D01*
X033746Y024527D02*
X018555Y024527D01*
X018760Y024329D02*
X033548Y024329D01*
X034000Y024130D02*
X034035Y024130D01*
X033970Y023932D02*
X033801Y023932D01*
X033970Y023733D02*
X033603Y023733D01*
X033404Y023534D02*
X033970Y023534D01*
X033970Y023336D02*
X033206Y023336D01*
X033007Y023137D02*
X033988Y023137D01*
X034109Y022939D02*
X032809Y022939D01*
X032610Y022740D02*
X034479Y022740D01*
X034677Y022542D02*
X032412Y022542D01*
X032213Y022343D02*
X034876Y022343D01*
X035074Y022145D02*
X032014Y022145D01*
X031920Y021946D02*
X035190Y021946D01*
X035470Y022146D02*
X034525Y023090D01*
X034525Y023563D01*
X034450Y023577D01*
X034930Y023534D02*
X034970Y023534D01*
X034970Y023336D02*
X034930Y023336D01*
X034970Y023181D02*
X035043Y023005D01*
X035178Y022870D01*
X035354Y022797D01*
X035545Y022797D01*
X035722Y022870D01*
X035857Y023005D01*
X035930Y023181D01*
X035930Y023972D01*
X035857Y024149D01*
X035722Y024284D01*
X035545Y024357D01*
X035354Y024357D01*
X035178Y024284D01*
X035043Y024149D01*
X034970Y023972D01*
X034970Y023181D01*
X034988Y023137D02*
X034912Y023137D01*
X035072Y022939D02*
X035109Y022939D01*
X035271Y022740D02*
X038603Y022740D01*
X038686Y022657D02*
X039084Y022657D01*
X039365Y022938D01*
X039365Y023335D01*
X039084Y023617D01*
X038686Y023617D01*
X038405Y023335D01*
X038405Y022938D01*
X038686Y022657D01*
X038686Y022617D02*
X038405Y022335D01*
X038405Y021938D01*
X038686Y021657D01*
X039084Y021657D01*
X039365Y021938D01*
X039365Y022335D01*
X039084Y022617D01*
X038686Y022617D01*
X038611Y022542D02*
X035469Y022542D01*
X035668Y022343D02*
X038413Y022343D01*
X038405Y022145D02*
X035750Y022145D01*
X035750Y021946D02*
X038405Y021946D01*
X038595Y021748D02*
X035750Y021748D01*
X035750Y021549D02*
X042641Y021549D01*
X042641Y021657D02*
X042641Y019564D01*
X035750Y019564D01*
X035750Y019762D02*
X042641Y019762D01*
X042641Y019564D02*
X038989Y015911D01*
X038859Y015911D01*
X038719Y015853D01*
X038612Y015747D01*
X038554Y015607D01*
X038554Y015456D01*
X038612Y015316D01*
X038719Y015209D01*
X038859Y015151D01*
X039010Y015151D01*
X039149Y015209D01*
X039256Y015316D01*
X039314Y015456D01*
X039314Y015586D01*
X042966Y019238D01*
X043101Y019373D01*
X043101Y021657D01*
X043259Y021657D01*
X043365Y021762D01*
X043365Y022511D01*
X043259Y022617D01*
X042510Y022617D01*
X042405Y022511D01*
X042405Y021762D01*
X042510Y021657D01*
X042641Y021657D01*
X042419Y021748D02*
X042203Y021748D01*
X042092Y021637D02*
X042385Y021930D01*
X042385Y022136D01*
X041885Y022136D01*
X041885Y021637D01*
X042092Y021637D01*
X041885Y021637D02*
X041885Y022136D01*
X041885Y022136D01*
X041885Y022137D01*
X041885Y022136D01*
X041385Y022136D01*
X041385Y021930D01*
X041678Y021637D01*
X041885Y021637D01*
X041885Y021748D02*
X041885Y021748D01*
X041885Y021946D02*
X041885Y021946D01*
X041885Y022137D02*
X041385Y022137D01*
X041385Y022344D01*
X041678Y022637D01*
X041885Y022637D01*
X041678Y022637D01*
X041385Y022930D01*
X041385Y023136D01*
X041885Y023136D01*
X041885Y023137D01*
X041885Y022939D02*
X041885Y022939D01*
X041885Y022740D02*
X041885Y022740D01*
X041885Y022542D02*
X041885Y022542D01*
X041885Y022343D02*
X041885Y022343D01*
X041885Y022145D02*
X041885Y022145D01*
X042187Y022542D02*
X042436Y022542D01*
X042405Y022343D02*
X042385Y022343D01*
X042385Y022145D02*
X042405Y022145D01*
X042405Y021946D02*
X042385Y021946D01*
X041567Y021748D02*
X041175Y021748D01*
X041084Y021657D02*
X041365Y021938D01*
X041365Y022335D01*
X041084Y022617D01*
X040686Y022617D01*
X040405Y022335D01*
X040405Y021938D01*
X040686Y021657D01*
X041084Y021657D01*
X041365Y021946D02*
X041385Y021946D01*
X041385Y022145D02*
X041365Y022145D01*
X041357Y022343D02*
X041385Y022343D01*
X041583Y022542D02*
X041159Y022542D01*
X041167Y022740D02*
X041574Y022740D01*
X041385Y022939D02*
X041365Y022939D01*
X041365Y023137D02*
X041385Y023137D01*
X041385Y023336D02*
X041364Y023336D01*
X041166Y023534D02*
X041576Y023534D01*
X041885Y023534D02*
X041885Y023534D01*
X041885Y023336D02*
X041885Y023336D01*
X042194Y023534D02*
X042604Y023534D01*
X042405Y023336D02*
X042385Y023336D01*
X042385Y023137D02*
X042405Y023137D01*
X042405Y022939D02*
X042385Y022939D01*
X042196Y022740D02*
X042603Y022740D01*
X043167Y022740D02*
X048948Y022740D01*
X049024Y022542D02*
X043334Y022542D01*
X043365Y022343D02*
X050863Y022343D01*
X050863Y022145D02*
X043365Y022145D01*
X043365Y021946D02*
X050863Y021946D01*
X050863Y021748D02*
X043350Y021748D01*
X043101Y021549D02*
X050863Y021549D01*
X050863Y021350D02*
X043101Y021350D01*
X043101Y021152D02*
X050863Y021152D01*
X050757Y021017D02*
X049820Y021017D01*
X049715Y020912D01*
X049715Y020879D01*
X049701Y020893D01*
X049561Y020951D01*
X049410Y020951D01*
X049270Y020893D01*
X049163Y020786D01*
X049105Y020646D01*
X049105Y020495D01*
X049163Y020355D01*
X049270Y020249D01*
X049410Y020191D01*
X049561Y020191D01*
X049701Y020249D01*
X049715Y020263D01*
X049715Y020133D01*
X049820Y020028D01*
X050757Y020028D01*
X050862Y020133D01*
X050862Y020912D01*
X050757Y021017D01*
X050821Y020953D02*
X050863Y020953D01*
X050862Y020755D02*
X050863Y020755D01*
X050862Y020556D02*
X050863Y020556D01*
X050862Y020358D02*
X050863Y020358D01*
X050862Y020159D02*
X050863Y020159D01*
X050863Y019961D02*
X047304Y019961D01*
X047346Y019762D02*
X050863Y019762D01*
X050863Y019564D02*
X047283Y019564D01*
X047401Y019266D02*
X047039Y019266D01*
X047039Y018809D01*
X046924Y018809D01*
X046924Y019266D01*
X046561Y019266D01*
X046511Y019252D01*
X046465Y019226D01*
X046428Y019189D01*
X046401Y019143D01*
X046388Y019092D01*
X046388Y018808D01*
X046924Y018808D01*
X046924Y018693D01*
X047039Y018693D01*
X047039Y018236D01*
X047401Y018236D01*
X047452Y018249D01*
X047498Y018276D01*
X047535Y018313D01*
X047561Y018359D01*
X047575Y018409D01*
X047575Y018693D01*
X047039Y018693D01*
X047039Y018808D01*
X047575Y018808D01*
X047575Y019092D01*
X047561Y019143D01*
X047535Y019189D01*
X047498Y019226D01*
X047452Y019252D01*
X047401Y019266D01*
X047548Y019166D02*
X049722Y019166D01*
X049695Y018968D02*
X047575Y018968D01*
X047575Y018571D02*
X049695Y018571D01*
X049695Y018693D02*
X049695Y018409D01*
X049708Y018359D01*
X049735Y018313D01*
X049772Y018276D01*
X049818Y018249D01*
X049868Y018236D01*
X050231Y018236D01*
X050231Y018693D01*
X049695Y018693D01*
X049705Y018372D02*
X047565Y018372D01*
X047039Y018372D02*
X046924Y018372D01*
X046924Y018236D02*
X046924Y018693D01*
X046388Y018693D01*
X046388Y018409D01*
X046401Y018359D01*
X046428Y018313D01*
X046465Y018276D01*
X046511Y018249D01*
X046561Y018236D01*
X046924Y018236D01*
X046924Y018571D02*
X047039Y018571D01*
X047123Y018681D02*
X046981Y018751D01*
X047123Y018838D01*
X048855Y020571D01*
X048698Y020728D01*
X048698Y021516D01*
X049756Y020953D02*
X047514Y020953D01*
X047555Y020755D02*
X049150Y020755D01*
X049105Y020556D02*
X047555Y020556D01*
X047555Y020358D02*
X049162Y020358D01*
X048855Y020571D02*
X050273Y019153D01*
X050273Y018838D01*
X050289Y018751D01*
X050231Y018769D02*
X047039Y018769D01*
X046924Y018769D02*
X046251Y018769D01*
X046251Y018571D02*
X046388Y018571D01*
X046398Y018372D02*
X046251Y018372D01*
X046251Y018174D02*
X050863Y018174D01*
X050863Y017975D02*
X046251Y017975D01*
X046251Y017777D02*
X050863Y017777D01*
X050863Y017578D02*
X046188Y017578D01*
X045990Y017380D02*
X050863Y017380D01*
X050863Y017181D02*
X045791Y017181D01*
X045592Y016983D02*
X050863Y016983D01*
X050863Y016784D02*
X045394Y016784D01*
X045195Y016585D02*
X046456Y016585D01*
X046408Y016537D02*
X046408Y015758D01*
X046513Y015653D01*
X046762Y015653D01*
X046743Y015607D01*
X046743Y015456D01*
X046801Y015316D01*
X046908Y015209D01*
X047048Y015151D01*
X047199Y015151D01*
X047338Y015209D01*
X047445Y015316D01*
X047503Y015456D01*
X047503Y015607D01*
X047474Y015677D01*
X047555Y015758D01*
X047555Y016537D01*
X047450Y016642D01*
X046513Y016642D01*
X046408Y016537D01*
X046408Y016387D02*
X044997Y016387D01*
X044798Y016188D02*
X046408Y016188D01*
X046408Y015990D02*
X044600Y015990D01*
X044401Y015791D02*
X046408Y015791D01*
X046743Y015593D02*
X044203Y015593D01*
X044004Y015394D02*
X046769Y015394D01*
X046941Y015196D02*
X043806Y015196D01*
X043607Y014997D02*
X050863Y014997D01*
X050851Y014799D02*
X050863Y014799D01*
X051323Y014799D02*
X064605Y014799D01*
X064605Y014997D02*
X051323Y014997D01*
X051323Y015196D02*
X064605Y015196D01*
X064605Y015394D02*
X051323Y015394D01*
X051323Y015593D02*
X064605Y015593D01*
X064605Y015791D02*
X051323Y015791D01*
X051323Y015990D02*
X064605Y015990D01*
X064605Y016188D02*
X051323Y016188D01*
X051323Y016387D02*
X064605Y016387D01*
X064605Y016585D02*
X051323Y016585D01*
X051323Y016784D02*
X064605Y016784D01*
X064605Y016983D02*
X051323Y016983D01*
X051323Y017181D02*
X064605Y017181D01*
X064605Y017380D02*
X051323Y017380D01*
X051323Y017578D02*
X064605Y017578D01*
X064605Y017777D02*
X051323Y017777D01*
X051323Y017975D02*
X064605Y017975D01*
X064605Y018174D02*
X051323Y018174D01*
X051323Y018372D02*
X064605Y018372D01*
X064605Y018571D02*
X051323Y018571D01*
X051323Y018769D02*
X064605Y018769D01*
X064605Y018968D02*
X051323Y018968D01*
X051323Y019166D02*
X064605Y019166D01*
X064605Y019365D02*
X051323Y019365D01*
X051323Y019564D02*
X064605Y019564D01*
X064605Y019762D02*
X051323Y019762D01*
X051323Y019961D02*
X064605Y019961D01*
X064605Y020159D02*
X051323Y020159D01*
X051323Y020358D02*
X064605Y020358D01*
X064605Y020556D02*
X051323Y020556D01*
X051323Y020755D02*
X064605Y020755D01*
X064605Y020953D02*
X051323Y020953D01*
X051323Y021152D02*
X064605Y021152D01*
X064605Y021350D02*
X051323Y021350D01*
X051323Y021549D02*
X064605Y021549D01*
X064605Y021748D02*
X051323Y021748D01*
X051323Y021946D02*
X064605Y021946D01*
X064605Y022145D02*
X051323Y022145D01*
X051323Y022343D02*
X064605Y022343D01*
X064605Y022542D02*
X051323Y022542D01*
X051323Y022740D02*
X064605Y022740D01*
X064605Y022939D02*
X051323Y022939D01*
X051323Y023137D02*
X064605Y023137D01*
X064605Y023336D02*
X051323Y023336D01*
X051323Y023534D02*
X064605Y023534D01*
X064605Y023733D02*
X051323Y023733D01*
X051325Y023932D02*
X064605Y023932D01*
X064605Y024130D02*
X051174Y024130D01*
X050993Y024329D02*
X064605Y024329D01*
X064605Y024527D02*
X050812Y024527D01*
X050631Y024726D02*
X064605Y024726D01*
X064603Y024924D02*
X050450Y024924D01*
X050269Y025123D02*
X064537Y025123D01*
X064315Y025321D02*
X050088Y025321D01*
X048310Y025321D02*
X000955Y025321D01*
X000733Y025123D02*
X048310Y025123D01*
X048310Y024924D02*
X048146Y024924D01*
X048146Y024726D02*
X048310Y024726D01*
X048310Y024527D02*
X048146Y024527D01*
X048143Y024329D02*
X048194Y024329D01*
X047651Y024642D02*
X047596Y024665D01*
X046966Y024665D01*
X050134Y024527D02*
X050189Y024527D01*
X050121Y024329D02*
X050370Y024329D01*
X050551Y024130D02*
X050114Y024130D01*
X050376Y023932D02*
X050732Y023932D01*
X050614Y023733D02*
X050863Y023733D01*
X050863Y023534D02*
X050653Y023534D01*
X050583Y023336D02*
X050863Y023336D01*
X050863Y023137D02*
X050114Y023137D01*
X049715Y022939D02*
X050863Y022939D01*
X050863Y022740D02*
X049708Y022740D01*
X049632Y022542D02*
X050863Y022542D01*
X046449Y020953D02*
X043101Y020953D01*
X043101Y020755D02*
X046408Y020755D01*
X046408Y020556D02*
X043101Y020556D01*
X043101Y020358D02*
X046408Y020358D01*
X046408Y020159D02*
X043101Y020159D01*
X043101Y019961D02*
X046503Y019961D01*
X046304Y019762D02*
X043101Y019762D01*
X043101Y019564D02*
X046106Y019564D01*
X045907Y019365D02*
X043093Y019365D01*
X042895Y019166D02*
X045791Y019166D01*
X045791Y018968D02*
X042696Y018968D01*
X042497Y018769D02*
X045791Y018769D01*
X045791Y018571D02*
X042299Y018571D01*
X042100Y018372D02*
X045791Y018372D01*
X045791Y018174D02*
X041902Y018174D01*
X041703Y017975D02*
X045791Y017975D01*
X045736Y017777D02*
X041505Y017777D01*
X041306Y017578D02*
X045538Y017578D01*
X045339Y017380D02*
X041108Y017380D01*
X040909Y017181D02*
X043116Y017181D01*
X043048Y017114D02*
X043198Y017264D01*
X043395Y017345D01*
X043607Y017345D01*
X043804Y017264D01*
X043954Y017114D01*
X044035Y016917D01*
X044035Y016705D01*
X043954Y016508D01*
X043804Y016358D01*
X043607Y016277D01*
X043395Y016277D01*
X043198Y016358D01*
X043048Y016508D01*
X042967Y016705D01*
X042967Y016917D01*
X043048Y017114D01*
X042994Y016983D02*
X040711Y016983D01*
X040512Y016784D02*
X042967Y016784D01*
X043016Y016585D02*
X040313Y016585D01*
X040115Y016387D02*
X043169Y016387D01*
X043833Y016387D02*
X044346Y016387D01*
X044148Y016188D02*
X039916Y016188D01*
X039718Y015990D02*
X043949Y015990D01*
X043751Y015791D02*
X039519Y015791D01*
X039321Y015593D02*
X043552Y015593D01*
X043354Y015394D02*
X039289Y015394D01*
X039117Y015196D02*
X043155Y015196D01*
X042957Y014997D02*
X038219Y014997D01*
X038219Y014799D02*
X042758Y014799D01*
X042559Y014600D02*
X038219Y014600D01*
X038219Y014401D02*
X042361Y014401D01*
X042326Y014203D02*
X038219Y014203D01*
X038219Y014004D02*
X042326Y014004D01*
X042326Y013806D02*
X038219Y013806D01*
X038219Y013607D02*
X042326Y013607D01*
X042326Y013409D02*
X038219Y013409D01*
X038219Y013210D02*
X042326Y013210D01*
X042326Y013012D02*
X038219Y013012D01*
X038219Y012813D02*
X042326Y012813D01*
X042326Y012615D02*
X038219Y012615D01*
X038219Y012416D02*
X042326Y012416D01*
X042326Y012217D02*
X038150Y012217D01*
X037952Y012019D02*
X042326Y012019D01*
X042326Y011820D02*
X037753Y011820D01*
X037555Y011622D02*
X042326Y011622D01*
X042326Y011423D02*
X037356Y011423D01*
X037158Y011225D02*
X042326Y011225D01*
X042326Y011026D02*
X036959Y011026D01*
X036927Y010828D02*
X042326Y010828D01*
X042326Y010629D02*
X036756Y010629D01*
X035249Y011225D02*
X035170Y011225D01*
X035117Y011423D02*
X035051Y011423D01*
X037759Y013012D02*
X032235Y013012D01*
X032235Y013210D02*
X037759Y013210D01*
X037759Y013409D02*
X032235Y013409D01*
X032235Y013607D02*
X037759Y013607D01*
X037759Y013806D02*
X032235Y013806D01*
X032235Y014004D02*
X037759Y014004D01*
X037759Y014203D02*
X032235Y014203D01*
X032235Y014401D02*
X037759Y014401D01*
X037759Y014600D02*
X032235Y014600D01*
X032235Y014799D02*
X037759Y014799D01*
X037759Y014997D02*
X032235Y014997D01*
X032235Y015196D02*
X037759Y015196D01*
X037759Y015394D02*
X032235Y015394D01*
X032235Y015593D02*
X037759Y015593D01*
X037759Y015791D02*
X032235Y015791D01*
X032235Y015990D02*
X037003Y015990D01*
X036845Y016188D02*
X032235Y016188D01*
X032235Y016387D02*
X036738Y016387D01*
X036539Y016585D02*
X032235Y016585D01*
X032235Y016784D02*
X036341Y016784D01*
X036142Y016983D02*
X032235Y016983D01*
X032235Y017181D02*
X035944Y017181D01*
X035745Y017380D02*
X032235Y017380D01*
X032235Y017578D02*
X035546Y017578D01*
X035348Y017777D02*
X032235Y017777D01*
X032235Y017975D02*
X035196Y017975D01*
X035095Y018174D02*
X032235Y018174D01*
X032235Y018372D02*
X035095Y018372D01*
X035095Y018571D02*
X032378Y018571D01*
X032576Y018769D02*
X035095Y018769D01*
X035190Y018968D02*
X032775Y018968D01*
X032973Y019166D02*
X035190Y019166D01*
X035190Y019365D02*
X033172Y019365D01*
X033370Y019564D02*
X035190Y019564D01*
X035190Y019762D02*
X033569Y019762D01*
X033767Y019961D02*
X035190Y019961D01*
X035190Y020159D02*
X033966Y020159D01*
X034165Y020358D02*
X035190Y020358D01*
X035190Y020556D02*
X034363Y020556D01*
X034562Y020755D02*
X035190Y020755D01*
X035190Y020953D02*
X034760Y020953D01*
X035112Y021152D02*
X035190Y021152D01*
X035750Y021152D02*
X042641Y021152D01*
X042641Y021350D02*
X035750Y021350D01*
X034692Y021748D02*
X031920Y021748D01*
X031920Y021549D02*
X034617Y021549D01*
X034507Y021350D02*
X031920Y021350D01*
X031920Y021152D02*
X034308Y021152D01*
X034110Y020953D02*
X031920Y020953D01*
X031920Y020755D02*
X033911Y020755D01*
X033713Y020556D02*
X031920Y020556D01*
X031920Y020358D02*
X033514Y020358D01*
X033316Y020159D02*
X031920Y020159D01*
X031920Y019961D02*
X033117Y019961D01*
X032919Y019762D02*
X031920Y019762D01*
X031920Y019564D02*
X032720Y019564D01*
X032521Y019365D02*
X031920Y019365D01*
X031920Y019166D02*
X032323Y019166D01*
X032124Y018968D02*
X031920Y018968D01*
X031920Y018769D02*
X031926Y018769D01*
X031460Y018769D02*
X027566Y018769D01*
X027590Y018571D02*
X031460Y018571D01*
X031460Y018372D02*
X027590Y018372D01*
X025863Y018996D02*
X025076Y019783D01*
X025076Y020413D01*
X025010Y020456D01*
X023816Y021043D02*
X022556Y022303D01*
X023064Y022740D02*
X024282Y022740D01*
X024288Y022939D02*
X023090Y022939D01*
X023045Y023137D02*
X024351Y023137D01*
X024494Y023336D02*
X022904Y023336D01*
X022540Y023336D02*
X022490Y023336D01*
X022490Y023137D02*
X022540Y023137D01*
X022126Y023336D02*
X021876Y023336D01*
X021154Y023336D02*
X020876Y023336D01*
X020154Y023336D02*
X016584Y023336D01*
X016782Y023534D02*
X017887Y023534D01*
X018611Y023534D02*
X024859Y023534D01*
X020279Y022343D02*
X015591Y022343D01*
X015392Y022145D02*
X020279Y022145D01*
X020279Y021946D02*
X015194Y021946D01*
X014995Y021748D02*
X020279Y021748D01*
X020279Y021549D02*
X014797Y021549D01*
X014598Y021350D02*
X020349Y021350D01*
X020100Y022542D02*
X015789Y022542D01*
X015988Y022740D02*
X019985Y022740D01*
X019960Y022939D02*
X016186Y022939D01*
X016385Y023137D02*
X020008Y023137D01*
X018776Y023733D02*
X032952Y023733D01*
X034198Y024329D02*
X034287Y024329D01*
X034613Y024329D02*
X035287Y024329D01*
X035035Y024130D02*
X034864Y024130D01*
X034930Y023932D02*
X034970Y023932D01*
X034970Y023733D02*
X034930Y023733D01*
X035864Y024130D02*
X040594Y024130D01*
X040594Y023932D02*
X035930Y023932D01*
X035930Y023733D02*
X040594Y023733D01*
X040594Y023534D02*
X040166Y023534D01*
X040084Y023617D02*
X039686Y023617D01*
X039405Y023335D01*
X039405Y022938D01*
X039686Y022657D01*
X040084Y022657D01*
X040365Y022938D01*
X040365Y023335D01*
X040084Y023617D01*
X040364Y023336D02*
X040405Y023336D01*
X040405Y023137D02*
X040365Y023137D01*
X040365Y022939D02*
X040405Y022939D01*
X040603Y022740D02*
X040167Y022740D01*
X040084Y022617D02*
X039686Y022617D01*
X039405Y022335D01*
X039405Y021938D01*
X039686Y021657D01*
X040084Y021657D01*
X040365Y021938D01*
X040365Y022335D01*
X040084Y022617D01*
X040159Y022542D02*
X040611Y022542D01*
X040413Y022343D02*
X040357Y022343D01*
X040365Y022145D02*
X040405Y022145D01*
X040405Y021946D02*
X040365Y021946D01*
X040175Y021748D02*
X040595Y021748D01*
X039595Y021748D02*
X039175Y021748D01*
X039365Y021946D02*
X039405Y021946D01*
X039405Y022145D02*
X039365Y022145D01*
X039357Y022343D02*
X039413Y022343D01*
X039611Y022542D02*
X039159Y022542D01*
X039167Y022740D02*
X039603Y022740D01*
X039405Y022939D02*
X039365Y022939D01*
X039365Y023137D02*
X039405Y023137D01*
X039405Y023336D02*
X039364Y023336D01*
X039166Y023534D02*
X039604Y023534D01*
X038604Y023534D02*
X035930Y023534D01*
X035930Y023336D02*
X038405Y023336D01*
X038405Y023137D02*
X035912Y023137D01*
X035791Y022939D02*
X038405Y022939D01*
X035470Y022146D02*
X035470Y018523D01*
X035531Y018447D01*
X035470Y018366D01*
X035470Y018051D01*
X037202Y016319D01*
X037559Y016188D02*
X037759Y016188D01*
X037759Y015990D02*
X037401Y015990D01*
X038219Y015990D02*
X039067Y015990D01*
X039266Y016188D02*
X038219Y016188D01*
X038712Y016387D02*
X038768Y016387D01*
X038768Y016585D02*
X038712Y016585D01*
X038768Y016784D02*
X039862Y016784D01*
X040060Y016983D02*
X039196Y016983D01*
X039196Y017079D02*
X039183Y017130D01*
X039156Y017176D01*
X039119Y017213D01*
X039073Y017239D01*
X039023Y017253D01*
X038768Y017253D01*
X038768Y016786D01*
X039196Y016786D01*
X039196Y017079D01*
X039151Y017181D02*
X040259Y017181D01*
X040457Y017380D02*
X038219Y017380D01*
X038219Y017578D02*
X040656Y017578D01*
X040854Y017777D02*
X038219Y017777D01*
X038332Y017975D02*
X038395Y017975D01*
X038718Y017975D02*
X038774Y017975D01*
X038774Y018174D02*
X038718Y018174D01*
X038718Y018372D02*
X038774Y018372D01*
X038774Y018475D02*
X039202Y018475D01*
X039202Y018768D01*
X039188Y018819D01*
X039162Y018865D01*
X039125Y018902D01*
X039079Y018928D01*
X039028Y018942D01*
X038774Y018942D01*
X038774Y018475D01*
X038774Y018571D02*
X038718Y018571D01*
X038718Y018769D02*
X038774Y018769D01*
X039202Y018769D02*
X041847Y018769D01*
X041649Y018571D02*
X039202Y018571D01*
X039202Y018372D02*
X041450Y018372D01*
X041251Y018174D02*
X039202Y018174D01*
X039097Y017975D02*
X041053Y017975D01*
X042046Y018968D02*
X035750Y018968D01*
X035750Y019166D02*
X042244Y019166D01*
X042443Y019365D02*
X035750Y019365D01*
X035750Y019961D02*
X042641Y019961D01*
X042641Y020159D02*
X035750Y020159D01*
X035750Y020358D02*
X042641Y020358D01*
X042641Y020556D02*
X035750Y020556D01*
X035750Y020755D02*
X042641Y020755D01*
X042641Y020953D02*
X035750Y020953D01*
X036715Y018769D02*
X037562Y018769D01*
X038712Y017181D02*
X038768Y017181D01*
X038768Y016983D02*
X038712Y016983D01*
X039196Y016585D02*
X039663Y016585D01*
X039465Y016387D02*
X039183Y016387D01*
X038657Y015791D02*
X038219Y015791D01*
X038219Y015593D02*
X038554Y015593D01*
X038580Y015394D02*
X038219Y015394D01*
X038219Y015196D02*
X038752Y015196D01*
X042813Y014203D02*
X046388Y014203D01*
X046388Y014318D02*
X046388Y014034D01*
X046401Y013984D01*
X046428Y013938D01*
X046465Y013901D01*
X046511Y013874D01*
X046561Y013861D01*
X046924Y013861D01*
X046924Y014318D01*
X047039Y014318D01*
X047039Y013861D01*
X047401Y013861D01*
X047452Y013874D01*
X047498Y013901D01*
X047535Y013938D01*
X047561Y013984D01*
X047575Y014034D01*
X047575Y014318D01*
X047039Y014318D01*
X047039Y014433D01*
X047575Y014433D01*
X047575Y014717D01*
X047561Y014768D01*
X047535Y014814D01*
X047498Y014851D01*
X047452Y014877D01*
X047401Y014891D01*
X047039Y014891D01*
X047039Y014434D01*
X046924Y014434D01*
X046924Y014891D01*
X046561Y014891D01*
X046511Y014877D01*
X046465Y014851D01*
X046428Y014814D01*
X046401Y014768D01*
X046388Y014717D01*
X046388Y014433D01*
X046924Y014433D01*
X046924Y014318D01*
X046388Y014318D01*
X046388Y014600D02*
X043210Y014600D01*
X043409Y014799D02*
X046419Y014799D01*
X046924Y014799D02*
X047039Y014799D01*
X047039Y014600D02*
X046924Y014600D01*
X046924Y014401D02*
X043011Y014401D01*
X042786Y014004D02*
X046396Y014004D01*
X046924Y014004D02*
X047039Y014004D01*
X047039Y014203D02*
X046924Y014203D01*
X046981Y014376D02*
X047123Y014429D01*
X047911Y014429D01*
X047911Y017894D01*
X047123Y018681D01*
X047039Y018968D02*
X046924Y018968D01*
X046924Y019166D02*
X047039Y019166D01*
X046558Y019365D02*
X050863Y019365D01*
X050855Y019166D02*
X050863Y019166D01*
X050346Y019166D02*
X050231Y019166D01*
X050231Y018968D02*
X050346Y018968D01*
X050346Y018571D02*
X050231Y018571D01*
X050231Y018372D02*
X050346Y018372D01*
X046388Y018968D02*
X046251Y018968D01*
X046359Y019166D02*
X046415Y019166D01*
X047555Y020159D02*
X049715Y020159D01*
X045141Y017181D02*
X043886Y017181D01*
X044008Y016983D02*
X044942Y016983D01*
X044743Y016784D02*
X044035Y016784D01*
X043986Y016585D02*
X044545Y016585D01*
X047507Y016585D02*
X049763Y016585D01*
X049715Y016537D02*
X049715Y015826D01*
X049636Y015747D01*
X049578Y015607D01*
X049578Y015456D01*
X049636Y015316D01*
X049742Y015209D01*
X049882Y015151D01*
X050033Y015151D01*
X050173Y015209D01*
X050280Y015316D01*
X050338Y015456D01*
X050338Y015586D01*
X050368Y015616D01*
X050404Y015653D01*
X050757Y015653D01*
X050862Y015758D01*
X050862Y016537D01*
X050757Y016642D01*
X049820Y016642D01*
X049715Y016537D01*
X049715Y016387D02*
X047555Y016387D01*
X047555Y016188D02*
X049715Y016188D01*
X049715Y015990D02*
X047555Y015990D01*
X047555Y015791D02*
X049680Y015791D01*
X049578Y015593D02*
X047503Y015593D01*
X047478Y015394D02*
X049603Y015394D01*
X049775Y015196D02*
X047306Y015196D01*
X047544Y014799D02*
X049726Y014799D01*
X049695Y014600D02*
X047575Y014600D01*
X047911Y014429D02*
X048698Y014429D01*
X048698Y010020D01*
X047123Y010020D01*
X046981Y010001D01*
X046924Y010034D02*
X045615Y010034D01*
X045417Y010232D02*
X046388Y010232D01*
X046388Y010342D02*
X046388Y010058D01*
X046924Y010058D01*
X046924Y009943D01*
X047039Y009943D01*
X047039Y009486D01*
X047401Y009486D01*
X047452Y009499D01*
X047498Y009526D01*
X047535Y009563D01*
X047561Y009609D01*
X047575Y009659D01*
X047575Y009943D01*
X047039Y009943D01*
X047039Y010058D01*
X047575Y010058D01*
X047575Y010342D01*
X047561Y010393D01*
X047535Y010439D01*
X047498Y010476D01*
X047452Y010502D01*
X047401Y010516D01*
X047039Y010516D01*
X047039Y010059D01*
X046924Y010059D01*
X046924Y010516D01*
X046561Y010516D01*
X046511Y010502D01*
X046465Y010476D01*
X046428Y010439D01*
X046401Y010393D01*
X046388Y010342D01*
X046423Y010431D02*
X045218Y010431D01*
X045020Y010629D02*
X050863Y010629D01*
X050847Y010431D02*
X050863Y010431D01*
X050863Y010828D02*
X046894Y010828D01*
X046866Y010800D02*
X046973Y010907D01*
X047031Y011046D01*
X047031Y011177D01*
X047061Y011207D01*
X047132Y011278D01*
X047450Y011278D01*
X047555Y011383D01*
X047555Y012162D01*
X047450Y012267D01*
X046716Y012267D01*
X046716Y012300D01*
X046658Y012439D01*
X046551Y012546D01*
X046411Y012604D01*
X046260Y012604D01*
X046120Y012546D01*
X046014Y012439D01*
X045956Y012300D01*
X045956Y012149D01*
X046014Y012009D01*
X046120Y011902D01*
X046260Y011844D01*
X046408Y011844D01*
X046408Y011416D01*
X046329Y011337D01*
X046271Y011197D01*
X046271Y011046D01*
X046329Y010907D01*
X046435Y010800D01*
X046575Y010742D01*
X046726Y010742D01*
X046866Y010800D01*
X047022Y011026D02*
X050863Y011026D01*
X050863Y011225D02*
X047079Y011225D01*
X047555Y011423D02*
X049285Y011423D01*
X049270Y011430D02*
X049410Y011372D01*
X049561Y011372D01*
X049701Y011430D01*
X049715Y011444D01*
X049715Y011383D01*
X049820Y011278D01*
X050757Y011278D01*
X050862Y011383D01*
X050862Y012162D01*
X050757Y012267D01*
X049820Y012267D01*
X049715Y012162D01*
X049715Y012060D01*
X049701Y012074D01*
X049561Y012132D01*
X049410Y012132D01*
X049270Y012074D01*
X049163Y011967D01*
X049105Y011827D01*
X049105Y011676D01*
X049163Y011537D01*
X049270Y011430D01*
X049128Y011622D02*
X047555Y011622D01*
X047555Y011820D02*
X049105Y011820D01*
X049215Y012019D02*
X047555Y012019D01*
X047500Y012217D02*
X049770Y012217D01*
X050807Y012217D02*
X050863Y012217D01*
X050862Y012019D02*
X050863Y012019D01*
X050862Y011820D02*
X050863Y011820D01*
X050862Y011622D02*
X050863Y011622D01*
X050862Y011423D02*
X050863Y011423D01*
X051323Y011423D02*
X064605Y011423D01*
X064605Y011225D02*
X051323Y011225D01*
X051323Y011026D02*
X064605Y011026D01*
X064605Y010828D02*
X051323Y010828D01*
X051323Y010629D02*
X064605Y010629D01*
X064605Y010431D02*
X051323Y010431D01*
X051323Y010232D02*
X064605Y010232D01*
X064605Y010034D02*
X051323Y010034D01*
X051323Y009835D02*
X064605Y009835D01*
X064605Y009636D02*
X051323Y009636D01*
X051323Y009438D02*
X064605Y009438D01*
X064605Y009239D02*
X051323Y009239D01*
X051323Y009041D02*
X064605Y009041D01*
X064605Y008842D02*
X051323Y008842D01*
X051323Y008644D02*
X064605Y008644D01*
X064605Y008445D02*
X051323Y008445D01*
X051323Y008247D02*
X064605Y008247D01*
X064605Y008048D02*
X051323Y008048D01*
X051323Y007850D02*
X064605Y007850D01*
X064605Y007651D02*
X051323Y007651D01*
X051323Y007452D02*
X064605Y007452D01*
X064605Y007254D02*
X051323Y007254D01*
X051323Y007055D02*
X064605Y007055D01*
X064605Y006857D02*
X051323Y006857D01*
X051323Y006658D02*
X064605Y006658D01*
X064605Y006460D02*
X051323Y006460D01*
X051323Y006261D02*
X064605Y006261D01*
X064605Y006063D02*
X051323Y006063D01*
X051323Y005864D02*
X064605Y005864D01*
X064605Y005666D02*
X050114Y005666D01*
X050010Y005467D02*
X064605Y005467D01*
X064605Y005268D02*
X043781Y005268D01*
X043781Y005070D02*
X064605Y005070D01*
X064605Y004871D02*
X043781Y004871D01*
X043781Y004675D02*
X043781Y010049D01*
X043804Y010059D01*
X043954Y010209D01*
X044035Y010405D01*
X044035Y010618D01*
X043954Y010814D01*
X043804Y010965D01*
X043607Y011046D01*
X043395Y011046D01*
X043198Y010965D01*
X043048Y010814D01*
X042967Y010618D01*
X042967Y010405D01*
X043048Y010209D01*
X043198Y010059D01*
X043221Y010049D01*
X043221Y004675D01*
X043198Y004665D01*
X043048Y004515D01*
X042967Y004319D01*
X042967Y004106D01*
X043048Y003910D01*
X043198Y003759D01*
X043395Y003678D01*
X043607Y003678D01*
X043804Y003759D01*
X043954Y003910D01*
X044035Y004106D01*
X044035Y004319D01*
X043954Y004515D01*
X043804Y004665D01*
X043781Y004675D01*
X043786Y004673D02*
X064605Y004673D01*
X064605Y004474D02*
X043971Y004474D01*
X044035Y004276D02*
X064605Y004276D01*
X064605Y004077D02*
X044023Y004077D01*
X043923Y003879D02*
X046114Y003879D01*
X046120Y003885D02*
X046014Y003778D01*
X045956Y003638D01*
X045956Y003487D01*
X046014Y003348D01*
X046120Y003241D01*
X046260Y003183D01*
X046390Y003183D01*
X046408Y003166D01*
X046408Y002633D01*
X046513Y002528D01*
X047450Y002528D01*
X047555Y002633D01*
X047555Y003412D01*
X047450Y003517D01*
X046716Y003517D01*
X046716Y003638D01*
X046658Y003778D01*
X046551Y003885D01*
X046411Y003943D01*
X046260Y003943D01*
X046120Y003885D01*
X045973Y003680D02*
X043612Y003680D01*
X043645Y003667D02*
X043441Y003582D01*
X043284Y003426D01*
X043255Y003355D01*
X043225Y003426D01*
X043069Y003582D01*
X042865Y003667D01*
X042645Y003667D01*
X042441Y003582D01*
X042284Y003426D01*
X042200Y003222D01*
X042200Y003001D01*
X042284Y002797D01*
X042441Y002641D01*
X042645Y002557D01*
X042865Y002557D01*
X043069Y002641D01*
X043225Y002797D01*
X043255Y002869D01*
X043284Y002797D01*
X043441Y002641D01*
X043645Y002557D01*
X043865Y002557D01*
X044069Y002641D01*
X044225Y002797D01*
X044255Y002869D01*
X044284Y002797D01*
X044441Y002641D01*
X044645Y002557D01*
X044865Y002557D01*
X045069Y002641D01*
X045225Y002797D01*
X045310Y003001D01*
X045310Y003222D01*
X045225Y003426D01*
X045069Y003582D01*
X044865Y003667D01*
X044645Y003667D01*
X044441Y003582D01*
X044284Y003426D01*
X044255Y003355D01*
X044225Y003426D01*
X044069Y003582D01*
X043865Y003667D01*
X043645Y003667D01*
X043390Y003680D02*
X030873Y003680D01*
X031071Y003879D02*
X043079Y003879D01*
X042979Y004077D02*
X031270Y004077D01*
X031468Y004276D02*
X042967Y004276D01*
X043031Y004474D02*
X031667Y004474D01*
X031865Y004673D02*
X043216Y004673D01*
X043221Y004871D02*
X032064Y004871D01*
X032263Y005070D02*
X043221Y005070D01*
X043221Y005268D02*
X032461Y005268D01*
X032660Y005467D02*
X043221Y005467D01*
X043221Y005666D02*
X032858Y005666D01*
X033057Y005864D02*
X043221Y005864D01*
X043221Y006063D02*
X033255Y006063D01*
X033454Y006261D02*
X043221Y006261D01*
X043221Y006460D02*
X033652Y006460D01*
X033851Y006658D02*
X043221Y006658D01*
X043221Y006857D02*
X034049Y006857D01*
X034248Y007055D02*
X043221Y007055D01*
X043221Y007254D02*
X034446Y007254D01*
X034645Y007452D02*
X043221Y007452D01*
X043221Y007651D02*
X034755Y007651D01*
X034755Y007850D02*
X043221Y007850D01*
X043221Y008048D02*
X034755Y008048D01*
X042765Y008644D02*
X043221Y008644D01*
X043221Y008842D02*
X042786Y008842D01*
X042786Y009041D02*
X043221Y009041D01*
X043221Y009239D02*
X042786Y009239D01*
X042786Y009438D02*
X043221Y009438D01*
X043221Y009636D02*
X042786Y009636D01*
X042786Y009835D02*
X043221Y009835D01*
X043221Y010034D02*
X042786Y010034D01*
X042786Y010232D02*
X043039Y010232D01*
X042967Y010431D02*
X042786Y010431D01*
X042786Y010629D02*
X042971Y010629D01*
X043061Y010828D02*
X042786Y010828D01*
X042786Y011026D02*
X043347Y011026D01*
X043655Y011026D02*
X043831Y011026D01*
X043941Y010828D02*
X044029Y010828D01*
X044031Y010629D02*
X044228Y010629D01*
X044035Y010431D02*
X044426Y010431D01*
X044625Y010232D02*
X043964Y010232D01*
X043781Y010034D02*
X044823Y010034D01*
X045022Y009835D02*
X043781Y009835D01*
X043781Y009636D02*
X045221Y009636D01*
X045419Y009438D02*
X043781Y009438D01*
X043781Y009239D02*
X045618Y009239D01*
X045816Y009041D02*
X043781Y009041D01*
X043781Y008842D02*
X046015Y008842D01*
X046213Y008644D02*
X043781Y008644D01*
X043781Y008445D02*
X046412Y008445D01*
X046610Y008247D02*
X043781Y008247D01*
X043781Y008048D02*
X046809Y008048D01*
X047007Y007850D02*
X043781Y007850D01*
X043781Y007651D02*
X047158Y007651D01*
X047158Y007699D02*
X047158Y007455D01*
X047156Y007452D01*
X047156Y006831D01*
X047160Y006827D01*
X047156Y006822D01*
X047156Y006201D01*
X047160Y006197D01*
X047156Y006192D01*
X047156Y005571D01*
X047261Y005466D01*
X048040Y005466D01*
X048146Y005571D01*
X048146Y006192D01*
X048141Y006197D01*
X048146Y006201D01*
X048146Y006822D01*
X048141Y006827D01*
X048146Y006831D01*
X048146Y007452D01*
X048040Y007558D01*
X047718Y007558D01*
X047718Y007759D01*
X047718Y007871D01*
X047675Y007973D01*
X047611Y008038D01*
X047597Y008052D01*
X043724Y011925D01*
X043724Y011985D01*
X043666Y012125D01*
X043559Y012231D01*
X043419Y012289D01*
X043268Y012289D01*
X043128Y012231D01*
X043021Y012125D01*
X042964Y011985D01*
X042964Y011834D01*
X043021Y011694D01*
X043128Y011587D01*
X043268Y011529D01*
X043328Y011529D01*
X047158Y007699D01*
X047156Y007452D02*
X043781Y007452D01*
X043781Y007254D02*
X047156Y007254D01*
X047156Y007055D02*
X043781Y007055D01*
X043781Y006857D02*
X047156Y006857D01*
X047156Y006658D02*
X043781Y006658D01*
X043781Y006460D02*
X047156Y006460D01*
X047156Y006261D02*
X043781Y006261D01*
X043781Y006063D02*
X047156Y006063D01*
X047156Y005864D02*
X043781Y005864D01*
X043781Y005666D02*
X047156Y005666D01*
X047260Y005467D02*
X043781Y005467D01*
X043501Y004212D02*
X043501Y010512D01*
X044623Y011026D02*
X046279Y011026D01*
X046282Y011225D02*
X044424Y011225D01*
X044226Y011423D02*
X046408Y011423D01*
X046408Y011622D02*
X044027Y011622D01*
X043828Y011820D02*
X046408Y011820D01*
X046009Y012019D02*
X043709Y012019D01*
X043573Y012217D02*
X045956Y012217D01*
X046004Y012416D02*
X042786Y012416D01*
X042786Y012217D02*
X043114Y012217D01*
X042978Y012019D02*
X042786Y012019D01*
X042786Y011820D02*
X042969Y011820D01*
X043094Y011622D02*
X042786Y011622D01*
X042786Y011423D02*
X043434Y011423D01*
X043632Y011225D02*
X042786Y011225D01*
X043344Y011909D02*
X047438Y007815D01*
X047438Y007185D01*
X047596Y007185D01*
X047651Y007142D01*
X048146Y007055D02*
X049104Y007055D01*
X049110Y006857D02*
X048146Y006857D01*
X048146Y006658D02*
X049124Y006658D01*
X049124Y006460D02*
X048146Y006460D01*
X048146Y006261D02*
X049124Y006261D01*
X049124Y006063D02*
X048146Y006063D01*
X048146Y005864D02*
X049124Y005864D01*
X049124Y005666D02*
X048146Y005666D01*
X048042Y005467D02*
X049228Y005467D01*
X048698Y006398D02*
X049485Y007185D01*
X049619Y007142D01*
X049643Y007185D01*
X049800Y007185D01*
X049800Y009075D01*
X050273Y009547D01*
X050273Y009862D01*
X050289Y010001D01*
X050273Y010020D01*
X048698Y010020D01*
X049695Y009943D02*
X049695Y009659D01*
X049708Y009609D01*
X049735Y009563D01*
X049772Y009526D01*
X049818Y009499D01*
X049868Y009486D01*
X050231Y009486D01*
X050231Y009943D01*
X049695Y009943D01*
X049695Y009835D02*
X047575Y009835D01*
X047569Y009636D02*
X049701Y009636D01*
X050231Y009636D02*
X050346Y009636D01*
X050346Y009835D02*
X050231Y009835D01*
X050231Y010034D02*
X047039Y010034D01*
X046924Y009943D02*
X046924Y009486D01*
X046561Y009486D01*
X046511Y009499D01*
X046465Y009526D01*
X046428Y009563D01*
X046401Y009609D01*
X046388Y009659D01*
X046388Y009943D01*
X046924Y009943D01*
X046924Y009835D02*
X047039Y009835D01*
X047039Y009636D02*
X046924Y009636D01*
X046394Y009636D02*
X046012Y009636D01*
X045814Y009835D02*
X046388Y009835D01*
X046211Y009438D02*
X050863Y009438D01*
X050863Y009239D02*
X046410Y009239D01*
X046608Y009041D02*
X050863Y009041D01*
X050863Y008842D02*
X046807Y008842D01*
X047005Y008644D02*
X050863Y008644D01*
X050863Y008445D02*
X047204Y008445D01*
X047402Y008247D02*
X050863Y008247D01*
X050863Y008048D02*
X047601Y008048D01*
X047718Y007850D02*
X050863Y007850D01*
X050863Y007651D02*
X047718Y007651D01*
X048146Y007452D02*
X049117Y007452D01*
X049104Y007254D02*
X048146Y007254D01*
X049601Y007254D02*
X049637Y007254D01*
X049637Y007452D02*
X049601Y007452D01*
X050121Y007452D02*
X050863Y007452D01*
X050863Y007254D02*
X050134Y007254D01*
X050134Y007055D02*
X050863Y007055D01*
X050863Y006857D02*
X050508Y006857D01*
X050641Y006658D02*
X050863Y006658D01*
X050863Y006460D02*
X050645Y006460D01*
X050516Y006261D02*
X050863Y006261D01*
X048698Y006398D02*
X048698Y001201D01*
X047123Y001201D01*
X046981Y001251D01*
X046924Y001298D02*
X019479Y001298D01*
X019479Y001496D02*
X046388Y001496D01*
X046388Y001592D02*
X046388Y001308D01*
X046924Y001308D01*
X046924Y001193D01*
X047039Y001193D01*
X047039Y000736D01*
X047401Y000736D01*
X047452Y000749D01*
X047498Y000776D01*
X047535Y000813D01*
X047561Y000859D01*
X047575Y000909D01*
X047575Y001193D01*
X047039Y001193D01*
X047039Y001308D01*
X047575Y001308D01*
X047575Y001592D01*
X047561Y001643D01*
X047535Y001689D01*
X047498Y001726D01*
X047452Y001752D01*
X047401Y001766D01*
X047039Y001766D01*
X047039Y001309D01*
X046924Y001309D01*
X046924Y001766D01*
X046561Y001766D01*
X046511Y001752D01*
X046465Y001726D01*
X046428Y001689D01*
X046401Y001643D01*
X046388Y001592D01*
X046434Y001695D02*
X019479Y001695D01*
X019479Y001893D02*
X064605Y001893D01*
X064605Y001695D02*
X050836Y001695D01*
X050842Y001689D02*
X050805Y001726D01*
X050759Y001752D01*
X050709Y001766D01*
X050346Y001766D01*
X050346Y001309D01*
X050231Y001309D01*
X050231Y001766D01*
X049868Y001766D01*
X049818Y001752D01*
X049772Y001726D01*
X049735Y001689D01*
X049708Y001643D01*
X049695Y001592D01*
X049695Y001308D01*
X050231Y001308D01*
X050231Y001193D01*
X050346Y001193D01*
X050346Y000736D01*
X050709Y000736D01*
X050759Y000749D01*
X050805Y000776D01*
X050842Y000813D01*
X050869Y000859D01*
X050882Y000909D01*
X050882Y001193D01*
X050346Y001193D01*
X050346Y001308D01*
X050882Y001308D01*
X050882Y001592D01*
X050869Y001643D01*
X050842Y001689D01*
X050882Y001496D02*
X064605Y001496D01*
X064605Y001298D02*
X050346Y001298D01*
X050289Y001251D02*
X050273Y001201D01*
X048698Y001201D01*
X049695Y001193D02*
X049695Y000909D01*
X049708Y000859D01*
X049735Y000813D01*
X049772Y000776D01*
X049818Y000749D01*
X049868Y000736D01*
X050231Y000736D01*
X050231Y001193D01*
X049695Y001193D01*
X049695Y001099D02*
X047575Y001099D01*
X047573Y000901D02*
X049697Y000901D01*
X050231Y000901D02*
X050346Y000901D01*
X050346Y001099D02*
X050231Y001099D01*
X050231Y001298D02*
X047039Y001298D01*
X046924Y001193D02*
X046924Y000736D01*
X046561Y000736D01*
X046511Y000749D01*
X046465Y000776D01*
X046428Y000813D01*
X046401Y000859D01*
X046388Y000909D01*
X046388Y001193D01*
X046924Y001193D01*
X046924Y001099D02*
X047039Y001099D01*
X047039Y000901D02*
X046924Y000901D01*
X046390Y000901D02*
X019479Y000901D01*
X019479Y001099D02*
X046388Y001099D01*
X046924Y001496D02*
X047039Y001496D01*
X047039Y001695D02*
X046924Y001695D01*
X047529Y001695D02*
X049741Y001695D01*
X049695Y001496D02*
X047575Y001496D01*
X049715Y002633D02*
X049820Y002528D01*
X050757Y002528D01*
X050862Y002633D01*
X050862Y003412D01*
X050757Y003517D01*
X049820Y003517D01*
X049715Y003412D01*
X049715Y003398D01*
X049701Y003413D01*
X049561Y003470D01*
X049410Y003470D01*
X049270Y003413D01*
X049163Y003306D01*
X049105Y003166D01*
X049105Y003015D01*
X049163Y002875D01*
X049270Y002768D01*
X049410Y002710D01*
X049561Y002710D01*
X049701Y002768D01*
X049715Y002783D01*
X049715Y002633D01*
X049715Y002687D02*
X047555Y002687D01*
X047555Y002886D02*
X049159Y002886D01*
X049105Y003084D02*
X047555Y003084D01*
X047555Y003283D02*
X049154Y003283D01*
X049784Y003482D02*
X047485Y003482D01*
X046698Y003680D02*
X064605Y003680D01*
X064605Y003482D02*
X050793Y003482D01*
X050862Y003283D02*
X064605Y003283D01*
X064605Y003084D02*
X050862Y003084D01*
X050862Y002886D02*
X064605Y002886D01*
X064605Y002687D02*
X050862Y002687D01*
X050346Y001695D02*
X050231Y001695D01*
X050231Y001496D02*
X050346Y001496D01*
X050882Y001099D02*
X064603Y001099D01*
X064601Y001075D02*
X064601Y001075D01*
X064537Y000901D02*
X050880Y000901D01*
X046408Y002687D02*
X045116Y002687D01*
X045262Y002886D02*
X046408Y002886D01*
X046408Y003084D02*
X045310Y003084D01*
X045285Y003283D02*
X046078Y003283D01*
X045958Y003482D02*
X045170Y003482D01*
X044340Y003482D02*
X044170Y003482D01*
X043340Y003482D02*
X043170Y003482D01*
X042340Y003482D02*
X030674Y003482D01*
X030476Y003283D02*
X042225Y003283D01*
X042200Y003084D02*
X030277Y003084D01*
X030079Y002886D02*
X042248Y002886D01*
X042394Y002687D02*
X019479Y002687D01*
X019479Y002489D02*
X064605Y002489D01*
X064605Y002290D02*
X019479Y002290D01*
X019479Y002092D02*
X064605Y002092D01*
X064315Y000702D02*
X064196Y000670D01*
X064135Y000666D01*
X064044Y000666D01*
X064030Y000666D01*
X019479Y000666D01*
X019019Y001099D02*
X018882Y001099D01*
X018346Y001496D02*
X018231Y001496D01*
X018231Y001298D02*
X015039Y001298D01*
X014981Y001251D02*
X014997Y001201D01*
X016729Y001201D01*
X017695Y001099D02*
X015575Y001099D01*
X015575Y001496D02*
X017695Y001496D01*
X017741Y001695D02*
X015529Y001695D01*
X015039Y001695D02*
X014924Y001695D01*
X014924Y001496D02*
X015039Y001496D01*
X014924Y001298D02*
X014282Y001298D01*
X014282Y001496D02*
X014388Y001496D01*
X014434Y001695D02*
X014282Y001695D01*
X018231Y001695D02*
X018346Y001695D01*
X018010Y005467D02*
X019019Y005467D01*
X019019Y005666D02*
X018114Y005666D01*
X017228Y005467D02*
X016042Y005467D01*
X016146Y005666D02*
X017124Y005666D01*
X017124Y005864D02*
X016644Y005864D01*
X016644Y006063D02*
X017124Y006063D01*
X017124Y006261D02*
X016644Y006261D01*
X016644Y006460D02*
X017124Y006460D01*
X017124Y006658D02*
X016644Y006658D01*
X016644Y006857D02*
X017110Y006857D01*
X017104Y007055D02*
X016644Y007055D01*
X016644Y007254D02*
X017104Y007254D01*
X017117Y007452D02*
X016692Y007452D01*
X016891Y007651D02*
X017956Y007651D01*
X018155Y007850D02*
X017089Y007850D01*
X017500Y008048D02*
X018547Y008048D01*
X018547Y007850D02*
X018453Y007850D01*
X018447Y008247D02*
X017582Y008247D01*
X017548Y008445D02*
X018397Y008445D01*
X018448Y008644D02*
X017334Y008644D01*
X017107Y008842D02*
X019019Y008842D01*
X019007Y008048D02*
X019019Y008048D01*
X019007Y007850D02*
X019019Y007850D01*
X019007Y007651D02*
X019019Y007651D01*
X019007Y007452D02*
X019019Y007452D01*
X019007Y007254D02*
X019019Y007254D01*
X019007Y007055D02*
X019019Y007055D01*
X019007Y006857D02*
X019019Y006857D01*
X019007Y006658D02*
X019019Y006658D01*
X019007Y006460D02*
X019019Y006460D01*
X019007Y006261D02*
X019019Y006261D01*
X019007Y006063D02*
X019019Y006063D01*
X019007Y005864D02*
X019019Y005864D01*
X018232Y006785D02*
X018232Y007120D01*
X018229Y007120D01*
X018133Y007160D01*
X017638Y007160D01*
X017638Y007123D01*
X018134Y007123D01*
X018134Y006879D01*
X018121Y006828D01*
X018114Y006817D01*
X018114Y006785D01*
X018232Y006785D01*
X018232Y006857D02*
X018128Y006857D01*
X018134Y007055D02*
X018232Y007055D01*
X017637Y007254D02*
X017601Y007254D01*
X017601Y007452D02*
X017637Y007452D01*
X015039Y010232D02*
X014924Y010232D01*
X014924Y010431D02*
X015039Y010431D01*
X014332Y010828D02*
X018431Y010828D01*
X018232Y011026D02*
X014332Y011026D01*
X014332Y011225D02*
X018074Y011225D01*
X018684Y011225D02*
X023064Y011225D01*
X023064Y011423D02*
X018862Y011423D01*
X018862Y011622D02*
X023064Y011622D01*
X023064Y011820D02*
X018862Y011820D01*
X018862Y012019D02*
X023064Y012019D01*
X023064Y012217D02*
X018807Y012217D01*
X017770Y012217D02*
X015500Y012217D01*
X015450Y012267D02*
X015555Y012162D01*
X015555Y012060D01*
X015569Y012074D01*
X015709Y012132D01*
X015860Y012132D01*
X016000Y012074D01*
X016107Y011967D01*
X016165Y011827D01*
X016165Y011676D01*
X016107Y011537D01*
X016000Y011430D01*
X015860Y011372D01*
X015709Y011372D01*
X015569Y011430D01*
X015555Y011444D01*
X015555Y011383D01*
X015450Y011278D01*
X014513Y011278D01*
X014408Y011383D01*
X014408Y012162D01*
X014513Y012267D01*
X015450Y012267D01*
X016055Y012019D02*
X017247Y012019D01*
X017137Y011820D02*
X016165Y011820D01*
X016142Y011622D02*
X017159Y011622D01*
X017317Y011423D02*
X015985Y011423D01*
X015585Y011423D02*
X015555Y011423D01*
X014408Y011423D02*
X014332Y011423D01*
X014332Y011622D02*
X014408Y011622D01*
X014408Y011820D02*
X014332Y011820D01*
X014332Y012019D02*
X014408Y012019D01*
X014463Y012217D02*
X014332Y012217D01*
X014332Y012416D02*
X023064Y012416D01*
X023064Y012615D02*
X014332Y012615D01*
X014332Y012813D02*
X023064Y012813D01*
X023064Y013012D02*
X014332Y013012D01*
X014332Y013210D02*
X021033Y013210D01*
X020916Y013409D02*
X014332Y013409D01*
X014332Y013607D02*
X020848Y013607D01*
X020649Y013806D02*
X014332Y013806D01*
X014428Y013938D02*
X014465Y013901D01*
X014511Y013874D01*
X014561Y013861D01*
X014924Y013861D01*
X014924Y014318D01*
X015039Y014318D01*
X015039Y013861D01*
X015401Y013861D01*
X015452Y013874D01*
X015498Y013901D01*
X015535Y013938D01*
X015561Y013984D01*
X015575Y014034D01*
X015575Y014318D01*
X015039Y014318D01*
X015039Y014433D01*
X015575Y014433D01*
X015575Y014717D01*
X015561Y014768D01*
X015535Y014814D01*
X015498Y014851D01*
X015452Y014877D01*
X015401Y014891D01*
X015039Y014891D01*
X015039Y014434D01*
X014924Y014434D01*
X014924Y014891D01*
X014561Y014891D01*
X014511Y014877D01*
X014465Y014851D01*
X014428Y014814D01*
X014401Y014768D01*
X014388Y014717D01*
X014388Y014433D01*
X014924Y014433D01*
X014924Y014318D01*
X014388Y014318D01*
X014388Y014034D01*
X014401Y013984D01*
X014428Y013938D01*
X014396Y014004D02*
X014332Y014004D01*
X014332Y014203D02*
X014388Y014203D01*
X014332Y014401D02*
X014924Y014401D01*
X014981Y014376D02*
X014997Y014429D01*
X016572Y014429D01*
X018147Y014429D01*
X018289Y014376D01*
X018346Y014401D02*
X020054Y014401D01*
X020252Y014203D02*
X018882Y014203D01*
X018882Y014318D02*
X018882Y014034D01*
X018869Y013984D01*
X018842Y013938D01*
X018805Y013901D01*
X018759Y013874D01*
X018709Y013861D01*
X018346Y013861D01*
X018346Y014318D01*
X018231Y014318D01*
X018231Y013861D01*
X017868Y013861D01*
X017818Y013874D01*
X017772Y013901D01*
X017735Y013938D01*
X017708Y013984D01*
X017695Y014034D01*
X017695Y014318D01*
X018231Y014318D01*
X018231Y014433D01*
X017695Y014433D01*
X017695Y014717D01*
X017708Y014768D01*
X017735Y014814D01*
X017772Y014851D01*
X017818Y014877D01*
X017868Y014891D01*
X018231Y014891D01*
X018231Y014434D01*
X018346Y014434D01*
X018346Y014891D01*
X018709Y014891D01*
X018759Y014877D01*
X018805Y014851D01*
X018842Y014814D01*
X018869Y014768D01*
X018882Y014717D01*
X018882Y014433D01*
X018346Y014433D01*
X018346Y014318D01*
X018882Y014318D01*
X018882Y014600D02*
X019855Y014600D01*
X019657Y014799D02*
X018851Y014799D01*
X018346Y014799D02*
X018231Y014799D01*
X018231Y014600D02*
X018346Y014600D01*
X018231Y014401D02*
X015039Y014401D01*
X015039Y014203D02*
X014924Y014203D01*
X014924Y014004D02*
X015039Y014004D01*
X015567Y014004D02*
X017703Y014004D01*
X017695Y014203D02*
X015575Y014203D01*
X015575Y014600D02*
X017695Y014600D01*
X017726Y014799D02*
X015544Y014799D01*
X015039Y014799D02*
X014924Y014799D01*
X014924Y014600D02*
X015039Y014600D01*
X014419Y014799D02*
X014332Y014799D01*
X014332Y014997D02*
X019458Y014997D01*
X019260Y015196D02*
X014332Y015196D01*
X014332Y015394D02*
X019061Y015394D01*
X018863Y015593D02*
X014332Y015593D01*
X014408Y015758D02*
X014513Y015653D01*
X015450Y015653D01*
X015555Y015758D01*
X015555Y015853D01*
X015569Y015839D01*
X015709Y015781D01*
X015860Y015781D01*
X016000Y015839D01*
X016107Y015946D01*
X016165Y016086D01*
X016165Y016237D01*
X016107Y016376D01*
X016000Y016483D01*
X015860Y016541D01*
X015709Y016541D01*
X015569Y016483D01*
X015555Y016469D01*
X015555Y016537D01*
X015450Y016642D01*
X014513Y016642D01*
X014408Y016537D01*
X014408Y015758D01*
X014408Y015791D02*
X014332Y015791D01*
X014332Y015990D02*
X014408Y015990D01*
X014408Y016188D02*
X014332Y016188D01*
X014332Y016387D02*
X014408Y016387D01*
X014456Y016585D02*
X014332Y016585D01*
X014332Y016784D02*
X021234Y016784D01*
X021262Y016983D02*
X014332Y016983D01*
X014332Y017181D02*
X021383Y017181D01*
X021284Y016585D02*
X018814Y016585D01*
X017763Y016585D02*
X015507Y016585D01*
X016096Y016387D02*
X017205Y016387D01*
X017137Y016188D02*
X016165Y016188D01*
X016125Y015990D02*
X017177Y015990D01*
X017417Y015791D02*
X015884Y015791D01*
X015685Y015791D02*
X015555Y015791D01*
X017617Y015791D02*
X017715Y015791D01*
X014388Y014600D02*
X014332Y014600D01*
X018231Y014203D02*
X018346Y014203D01*
X018346Y014004D02*
X018231Y014004D01*
X018874Y014004D02*
X020451Y014004D01*
X021242Y013864D02*
X021372Y013864D01*
X021512Y013806D01*
X021657Y013607D02*
X023064Y013607D01*
X023064Y013409D02*
X021676Y013409D01*
X021560Y013210D02*
X023064Y013210D01*
X025233Y013957D02*
X025271Y013931D01*
X025233Y013957D02*
X025233Y014586D01*
X025706Y015059D01*
X025706Y015374D01*
X025692Y015446D01*
X025548Y015531D01*
X023816Y017264D01*
X023816Y021043D01*
X017756Y020953D02*
X015514Y020953D01*
X015039Y019166D02*
X014924Y019166D01*
X014924Y018968D02*
X015039Y018968D01*
X023624Y016983D02*
X023701Y016983D01*
X023624Y016784D02*
X023900Y016784D01*
X024098Y016585D02*
X023624Y016585D01*
X023624Y016387D02*
X024297Y016387D01*
X024495Y016188D02*
X023624Y016188D01*
X023624Y015990D02*
X024694Y015990D01*
X024892Y015791D02*
X023624Y015791D01*
X023624Y015593D02*
X025091Y015593D01*
X025262Y015394D02*
X023624Y015394D01*
X023624Y015196D02*
X025262Y015196D01*
X025248Y014997D02*
X023624Y014997D01*
X023624Y014799D02*
X025050Y014799D01*
X024953Y014600D02*
X023624Y014600D01*
X023624Y014401D02*
X024936Y014401D01*
X025606Y014401D02*
X025666Y014401D01*
X025643Y014600D02*
X027316Y014600D01*
X027155Y014799D02*
X026988Y014799D01*
X027052Y014997D02*
X027082Y014997D01*
X027082Y015196D02*
X027052Y015196D01*
X026627Y015196D02*
X026577Y015196D01*
X026651Y015374D02*
X026602Y015446D01*
X026651Y015531D01*
X026651Y016004D01*
X026627Y015990D02*
X026577Y015990D01*
X026577Y016146D02*
X026326Y016146D01*
X026275Y016132D01*
X026230Y016106D01*
X026192Y016069D01*
X026166Y016023D01*
X026152Y015972D01*
X026152Y015471D01*
X026577Y015471D01*
X026577Y016146D01*
X026157Y015990D02*
X026122Y015990D01*
X026122Y015791D02*
X026152Y015791D01*
X026152Y015593D02*
X026122Y015593D01*
X026122Y015394D02*
X026152Y015394D01*
X026152Y015196D02*
X026122Y015196D01*
X026122Y014997D02*
X026152Y014997D01*
X026217Y014799D02*
X026050Y014799D01*
X026047Y014401D02*
X025991Y014401D01*
X025991Y014203D02*
X026047Y014203D01*
X026047Y014004D02*
X025991Y014004D01*
X026021Y013957D02*
X026019Y013931D01*
X026021Y013957D02*
X026651Y013957D01*
X026651Y015374D01*
X026627Y015394D02*
X026577Y015394D01*
X026577Y015593D02*
X026627Y015593D01*
X026627Y015791D02*
X026577Y015791D01*
X026577Y014997D02*
X026627Y014997D01*
X026627Y014799D02*
X026577Y014799D01*
X026371Y014401D02*
X027021Y014401D01*
X026959Y014203D02*
X026475Y014203D01*
X026475Y014004D02*
X026959Y014004D01*
X026959Y013932D02*
X026959Y013639D01*
X026972Y013588D01*
X026999Y013542D01*
X027036Y013505D01*
X027081Y013479D01*
X027132Y013465D01*
X027386Y013465D01*
X027386Y013932D01*
X026959Y013932D01*
X026959Y013806D02*
X026475Y013806D01*
X026475Y013903D02*
X026047Y013903D01*
X026047Y013436D01*
X026301Y013436D01*
X026352Y013449D01*
X026398Y013476D01*
X026435Y013513D01*
X026461Y013558D01*
X026475Y013609D01*
X026475Y013903D01*
X026651Y013957D02*
X027281Y013957D01*
X027414Y013960D01*
X027386Y013806D02*
X027442Y013806D01*
X027442Y013607D02*
X027386Y013607D01*
X026967Y013607D02*
X026474Y013607D01*
X026047Y013607D02*
X025991Y013607D01*
X025991Y013806D02*
X026047Y013806D01*
X025615Y017777D02*
X024096Y017777D01*
X024096Y017975D02*
X025615Y017975D01*
X017111Y023733D02*
X016947Y023733D01*
X016189Y023733D02*
X016159Y023733D01*
X016121Y024329D02*
X016362Y024329D01*
X015574Y024329D02*
X015532Y024329D01*
X035613Y024329D02*
X040594Y024329D01*
X050814Y016585D02*
X050863Y016585D01*
X050862Y016387D02*
X050863Y016387D01*
X050862Y016188D02*
X050863Y016188D01*
X050862Y015990D02*
X050863Y015990D01*
X050862Y015791D02*
X050863Y015791D01*
X050863Y015593D02*
X050344Y015593D01*
X050312Y015394D02*
X050863Y015394D01*
X050863Y015196D02*
X050140Y015196D01*
X050231Y014799D02*
X050346Y014799D01*
X050346Y014600D02*
X050231Y014600D01*
X050273Y014429D02*
X050289Y014376D01*
X050273Y014429D02*
X048698Y014429D01*
X049695Y014318D02*
X049695Y014034D01*
X049708Y013984D01*
X049735Y013938D01*
X049772Y013901D01*
X049818Y013874D01*
X049868Y013861D01*
X050231Y013861D01*
X050231Y014318D01*
X049695Y014318D01*
X049695Y014203D02*
X047575Y014203D01*
X047567Y014004D02*
X049703Y014004D01*
X050231Y014004D02*
X050346Y014004D01*
X050346Y014203D02*
X050231Y014203D01*
X050231Y014401D02*
X047039Y014401D01*
X050863Y013806D02*
X042786Y013806D01*
X042786Y013607D02*
X050863Y013607D01*
X050863Y013409D02*
X042786Y013409D01*
X042786Y013210D02*
X050863Y013210D01*
X050863Y013012D02*
X042786Y013012D01*
X042786Y012813D02*
X050863Y012813D01*
X050863Y012615D02*
X042786Y012615D01*
X046668Y012416D02*
X050863Y012416D01*
X051323Y012416D02*
X064605Y012416D01*
X064605Y012217D02*
X051323Y012217D01*
X051323Y012019D02*
X064605Y012019D01*
X064605Y011820D02*
X051323Y011820D01*
X051323Y011622D02*
X064605Y011622D01*
X064605Y012615D02*
X051323Y012615D01*
X051323Y012813D02*
X064605Y012813D01*
X064605Y013012D02*
X051323Y013012D01*
X051323Y013210D02*
X064605Y013210D01*
X064605Y013409D02*
X051323Y013409D01*
X051323Y013607D02*
X064605Y013607D01*
X064605Y013806D02*
X051323Y013806D01*
X051323Y014004D02*
X064605Y014004D01*
X064605Y014203D02*
X051323Y014203D01*
X051323Y014401D02*
X064605Y014401D01*
X064605Y014600D02*
X051323Y014600D01*
X049715Y011423D02*
X049685Y011423D01*
X049730Y010431D02*
X047540Y010431D01*
X047575Y010232D02*
X049695Y010232D01*
X050231Y010232D02*
X050346Y010232D01*
X050346Y010431D02*
X050231Y010431D01*
X047039Y010431D02*
X046924Y010431D01*
X046924Y010232D02*
X047039Y010232D01*
X046407Y010828D02*
X044821Y010828D01*
X046557Y003879D02*
X064605Y003879D01*
X044394Y002687D02*
X044116Y002687D01*
X043394Y002687D02*
X043116Y002687D01*
M02*
