G75*
G70*
%OFA0B0*%
%FSLAX24Y24*%
%IPPOS*%
%LPD*%
%AMOC8*
5,1,8,0,0,1.08239X$1,22.5*
%
%ADD10C,0.1063*%
%ADD11C,0.0750*%
%ADD12C,0.0709*%
%ADD13C,0.0475*%
%ADD14C,0.0827*%
%ADD15R,0.0600X0.0600*%
%ADD16OC8,0.0600*%
%ADD17C,0.0600*%
%ADD18C,0.0100*%
%ADD19C,0.0400*%
%ADD20C,0.0200*%
D10*
X025010Y020456D03*
X026860Y021637D03*
X025010Y022818D03*
D11*
X022515Y022912D03*
X021515Y022912D03*
X020515Y022912D03*
X042755Y003112D03*
X043755Y003112D03*
X044755Y003112D03*
D12*
X043501Y004212D03*
X043501Y010512D03*
X043501Y016811D03*
X021769Y016811D03*
X021769Y010512D03*
X021769Y004212D03*
D13*
X017422Y024012D03*
X016635Y024012D03*
X015848Y024012D03*
D14*
X015021Y024012D03*
X018249Y024012D03*
D15*
X042885Y022137D03*
D16*
X041885Y022137D03*
X040885Y022137D03*
X039885Y022137D03*
X038885Y022137D03*
X038885Y023137D03*
X039885Y023137D03*
X040885Y023137D03*
X041885Y023137D03*
X042885Y023137D03*
D17*
X035450Y023277D02*
X035450Y023877D01*
X034450Y023877D02*
X034450Y023277D01*
D18*
X017989Y007027D02*
X015312Y009705D01*
X015312Y019783D01*
X020509Y020098D02*
X024289Y020098D01*
X024604Y019783D01*
X025391Y019783D01*
X026178Y020571D01*
X046651Y020571D01*
X049643Y023563D01*
X050273Y023563D01*
X050745Y024035D02*
X046966Y024035D01*
X049328Y022775D02*
X046021Y019468D01*
X024131Y019468D01*
X023816Y019783D01*
X020824Y019783D01*
X020824Y014271D01*
X020509Y013957D01*
X020509Y011594D01*
X017202Y008287D01*
X016729Y008760D02*
X016729Y011279D01*
X017517Y011279D01*
X020509Y014271D01*
X020509Y020098D01*
X022241Y019311D02*
X030430Y011122D01*
X030430Y010334D01*
X032635Y010020D02*
X038147Y015531D01*
X038934Y015531D01*
X045548Y011437D02*
X046336Y012224D01*
X045548Y011437D02*
X034525Y011437D01*
X033737Y010649D01*
X035155Y010492D02*
X035627Y010964D01*
X036572Y010964D01*
X035470Y009705D02*
X045233Y009705D01*
X046651Y011122D01*
X048855Y011122D01*
X049485Y011752D01*
X049958Y011752D02*
X049958Y015531D01*
X047123Y015531D01*
X050273Y015374D02*
X050745Y015846D01*
X050745Y024035D01*
X043659Y023090D02*
X043659Y021988D01*
X043029Y021358D01*
X035155Y021358D01*
X034997Y021516D01*
X042885Y023137D02*
X043029Y023090D01*
X043659Y023090D01*
X048698Y019783D02*
X049485Y020571D01*
X048698Y019783D02*
X046966Y019783D01*
X050273Y015374D02*
X050273Y006555D01*
X046336Y003563D02*
X044761Y005138D01*
X038462Y005138D01*
X033737Y009862D01*
X032950Y009547D02*
X025233Y009547D01*
X021296Y013484D01*
X017517Y011752D02*
X015785Y011752D01*
X018777Y008445D02*
X019407Y009075D01*
X030430Y009075D01*
X031375Y008602D02*
X031848Y009075D01*
X031375Y008602D02*
X019407Y008602D01*
X018304Y007500D01*
X017989Y007027D02*
X032950Y007027D01*
X033265Y007342D01*
X033580Y008917D02*
X032950Y009547D01*
X035155Y009232D02*
X035312Y009390D01*
X047596Y009390D01*
X049958Y011752D01*
X035470Y009705D02*
X035312Y009862D01*
X046336Y003563D02*
X049013Y003563D01*
X049485Y003090D01*
X017517Y016161D02*
X015785Y016161D01*
D19*
X015785Y016161D03*
X017517Y016161D03*
X021296Y013484D03*
X017517Y011752D03*
X015785Y011752D03*
X016729Y008760D03*
X017202Y008287D03*
X018777Y008445D03*
X018304Y007500D03*
X030430Y009075D03*
X031848Y009075D03*
X033580Y008917D03*
X035155Y009232D03*
X035312Y009862D03*
X035155Y010492D03*
X033737Y010649D03*
X032635Y010020D03*
X033737Y009862D03*
X036572Y010964D03*
X034052Y012382D03*
X030430Y010334D03*
X033265Y007342D03*
X043344Y011909D03*
X046336Y012224D03*
X046651Y011122D03*
X049485Y011752D03*
X049958Y015531D03*
X047123Y015531D03*
X038934Y015531D03*
X037202Y016319D03*
X028698Y013484D03*
X025863Y018996D03*
X022241Y019311D03*
X023344Y020886D03*
X015312Y019783D03*
X034997Y021516D03*
X046966Y019783D03*
X049485Y020571D03*
X049328Y022775D03*
X050273Y023563D03*
X046966Y024035D03*
X046966Y024665D03*
X050273Y006555D03*
X046336Y003563D03*
X049485Y003090D03*
D20*
X043344Y011909D02*
X038934Y016319D01*
X037202Y016319D01*
X043501Y016791D02*
X043501Y016811D01*
X043501Y016791D02*
X028068Y016791D01*
X025863Y018996D01*
X025010Y020456D02*
X024918Y020413D01*
X014052Y020413D01*
X014052Y024035D01*
X014997Y024980D01*
X016415Y024980D01*
X017359Y024035D01*
X017422Y024012D01*
X016635Y024012D02*
X016572Y023878D01*
X018462Y021988D01*
X021454Y021988D01*
X021454Y022775D01*
X021515Y022912D01*
X021611Y022933D01*
X021611Y023878D01*
X033580Y023878D01*
X033895Y023563D01*
X034367Y023563D01*
X034450Y023577D01*
X034367Y023720D01*
X035155Y024508D01*
X046808Y024508D01*
X046966Y024665D01*
X043974Y024035D02*
X042556Y024035D01*
X041769Y023248D01*
X041885Y023137D01*
X041926Y023090D01*
X041926Y022146D01*
X041885Y022137D01*
X043186Y021043D02*
X043974Y021831D01*
X043974Y024035D01*
X038934Y023090D02*
X038934Y022146D01*
X038885Y022137D01*
X038934Y023090D02*
X038885Y023137D01*
X038777Y023090D01*
X035942Y023090D01*
X035470Y023563D01*
X035450Y023577D01*
X033107Y022775D02*
X034840Y021043D01*
X043186Y021043D01*
X033107Y022775D02*
X025076Y022775D01*
X025010Y022818D01*
X024918Y022775D01*
X022556Y022775D01*
X022515Y022912D01*
X024131Y021673D02*
X026808Y021673D01*
X026860Y021637D01*
X024131Y021673D02*
X023344Y020886D01*
X021769Y016811D02*
X021611Y016791D01*
X021139Y016791D01*
X021139Y014114D01*
X020824Y013799D01*
X020824Y013327D01*
X021454Y012697D01*
X021611Y012697D01*
X021611Y010649D01*
X021769Y010512D01*
X028698Y013484D02*
X032950Y013484D01*
X034052Y012382D01*
M02*
